<svg width="126" height="80" viewBox="0 0 126 80" fill="none" xmlns="http://www.w3.org/2000/svg">
<path d="M83.4589 44.6551C87.1393 58.7453 84.0453 50.5196 72.3162 58.1435C67.0383 58.1435 67.4628 58.7299 67.4628 45.8127C67.4628 38.6872 73.4893 26.4752 88.1505 26.4752C102.812 26.4752 87.564 37.6178 83.4589 44.6551Z" fill="#192BC2"/>
<rect x="86.3911" y="26.4752" width="23.4579" height="9.1486" fill="#192BC2"/>
<rect x="81.6995" y="39.3771" width="21.1122" height="5.86449" fill="#192BC2"/>
<rect x="80.5266" y="48.7603" width="17.5935" height="5.27804" fill="#192BC2"/>
<path d="M67.4082 63.5997L67.6247 44.0688L80.4296 48.986L67.4082 63.5997Z" fill="#192BC2"/>
<path d="M120.405 26.4752C120.405 28.9638 119.5 32.1205 117.657 33.1101C109.263 37.6178 107.503 34.6855 102.812 34.6855C97.5336 34.0991 106.147 34.8698 104.387 33.1101C102.627 31.3505 101.639 28.9638 101.639 26.4752L111.022 26.4752H120.405Z" fill="#192BC2"/>
<path d="M111.022 39.3771C111.022 40.9725 110.418 42.9962 109.187 43.6306C103.584 46.5204 102.41 44.6406 99.2784 44.6406C95.7553 44.2646 101.504 44.7587 100.33 43.6306C99.1553 42.5025 98.4954 40.9725 98.4954 39.3771L104.759 39.3771H111.022Z" fill="#192BC2"/>
<path d="M103.985 48.7603C103.985 50.3557 103.547 52.4794 102.484 53.0139C96.9475 55.7977 90.7127 52.279 88.1505 52.279C85.2679 51.903 96.1978 54.142 95.2367 53.0139C94.2757 51.8858 93.7358 50.3557 93.7358 48.7603L98.8603 48.7603H103.985Z" fill="#192BC2"/>
<path d="M93.5766 41.8352C92.7449 42.0485 91.8866 42.0724 91.0777 41.9046C90.2688 41.7369 89.5344 41.3828 88.9394 40.8736C88.3444 40.3645 87.9072 39.716 87.6666 38.9857C87.426 38.2553 87.3893 37.4656 87.5599 36.6866C87.7305 35.9075 88.1031 35.1631 88.6446 34.5193C89.1861 33.8755 89.8799 33.3522 90.6645 32.9957C91.449 32.6393 92.3002 32.4606 93.1425 32.4756C93.9848 32.4906 94.7923 32.6988 95.4935 33.0818L93.8782 35.4095C93.5691 35.2406 93.2131 35.1488 92.8417 35.1422C92.4704 35.1356 92.0951 35.2144 91.7492 35.3715C91.4033 35.5287 91.0975 35.7594 90.8587 36.0432C90.62 36.3271 90.4558 36.6553 90.3805 36.9987C90.3053 37.3422 90.3215 37.6903 90.4276 38.0123C90.5336 38.3343 90.7264 38.6202 90.9887 38.8447C91.251 39.0691 91.5748 39.2253 91.9314 39.2992C92.288 39.3732 92.6664 39.3626 93.0331 39.2686L93.5766 41.8352Z" fill="#192BC2"/>
<path d="M88.1869 51.5406C87.3552 51.7539 86.4969 51.7777 85.688 51.61C84.8791 51.4423 84.1446 51.0882 83.5496 50.579C82.9546 50.0698 82.5175 49.4214 82.2768 48.691C82.0362 47.9607 81.9996 47.171 82.1702 46.3919C82.3408 45.6129 82.7134 44.8685 83.2549 44.2247C83.7964 43.5809 84.4902 43.0576 85.2747 42.7011C86.0593 42.3446 86.9104 42.166 87.7528 42.181C88.5951 42.196 89.4026 42.4042 90.1037 42.7871L88.4885 45.1148C88.1793 44.946 87.8233 44.8542 87.452 44.8476C87.0806 44.841 86.7054 44.9197 86.3595 45.0769C86.0136 45.2341 85.7077 45.4648 85.469 45.7486C85.2303 46.0324 85.066 46.3606 84.9908 46.7041C84.9156 47.0476 84.9317 47.3957 85.0378 47.7177C85.1439 48.0397 85.3366 48.3256 85.5989 48.55C85.8613 48.7745 86.1851 48.9306 86.5417 49.0046C86.8983 49.0785 87.2767 49.068 87.6434 48.974L88.1869 51.5406Z" fill="#192BC2"/>
<path d="M42.5433 44.6573C38.8628 58.7481 41.9569 50.5221 53.6866 58.1464C58.9648 58.1464 58.5403 58.7329 58.5402 45.8151C58.5401 38.6892 52.5132 26.4766 37.8512 26.4764C23.1893 26.4763 38.4379 37.6195 42.5433 44.6573Z" fill="#192BC2"/>
<rect width="23.4591" height="9.14906" transform="matrix(-1 -9.9888e-06 9.9888e-06 1 39.6111 26.4766)" fill="#192BC2"/>
<rect width="21.1132" height="5.86478" transform="matrix(-1 -9.9888e-06 9.9888e-06 1 44.3027 39.379)" fill="#192BC2"/>
<rect width="17.5943" height="5.2783" transform="matrix(-1 -9.9888e-06 9.9888e-06 1 45.4757 48.7628)" fill="#192BC2"/>
<path d="M58.5952 63.6029L58.3785 44.071L45.5731 48.9883L58.5952 63.6029Z" fill="#192BC2"/>
<path d="M5.59532 26.4762C5.59535 28.9649 6.50084 32.1218 8.3438 33.1114C16.7384 37.6194 18.4979 34.687 23.1897 34.687C28.468 34.1006 19.8545 34.8713 21.6143 33.1116C23.374 31.3518 24.3626 28.9651 24.3626 26.4764L14.979 26.4763L5.59532 26.4762Z" fill="#192BC2"/>
<path d="M14.9786 39.3789C14.9787 40.9743 15.5831 42.9982 16.8133 43.6327C22.4167 46.5226 23.5911 44.6427 26.7229 44.6428C30.2462 44.2668 24.4967 44.7609 25.6713 43.6327C26.8459 42.5046 27.5058 40.9745 27.5058 39.379L21.2422 39.3789L14.9786 39.3789Z" fill="#192BC2"/>
<path d="M22.0166 48.7626C22.0166 50.3581 22.4547 52.4819 23.5177 53.0164C29.0544 55.8004 35.2894 52.2816 37.8518 52.2816C40.7345 51.9057 29.8041 54.1446 30.7652 53.0165C31.7262 51.8883 32.2661 50.3582 32.2661 48.7627L27.1414 48.7626L22.0166 48.7626Z" fill="#192BC2"/>
<path d="M32.4248 41.8372C33.2566 42.0505 34.115 42.0743 34.9239 41.9066C35.7328 41.7389 36.4673 41.3848 37.0623 40.8756C37.6574 40.3664 38.0945 39.7179 38.3352 38.9875C38.5758 38.2572 38.6124 37.4674 38.4418 36.6883C38.2712 35.9092 37.8986 35.1648 37.357 34.521C36.8155 33.8771 36.1217 33.3538 35.337 32.9973C34.5524 32.6408 33.7013 32.4621 32.8589 32.4771C32.0165 32.4921 31.209 32.7003 30.5078 33.0833L32.1232 35.4111C32.4323 35.2423 32.7883 35.1505 33.1597 35.1439C33.5311 35.1372 33.9063 35.216 34.2523 35.3732C34.5982 35.5304 34.904 35.7611 35.1428 36.0449C35.3816 36.3288 35.5458 36.657 35.621 37.0005C35.6963 37.3439 35.6801 37.6921 35.574 38.0141C35.468 38.3361 35.2752 38.622 35.0129 38.8465C34.7506 39.071 34.4267 39.2271 34.0701 39.3011C33.7135 39.375 33.3351 39.3645 32.9683 39.2704L32.4248 41.8372Z" fill="#192BC2"/>
<path d="M37.8152 51.5428C38.647 51.7561 39.5053 51.78 40.3142 51.6122C41.1231 51.4445 41.8577 51.0904 42.4527 50.5812C43.0477 50.072 43.4849 49.4235 43.7255 48.6932C43.9661 47.9628 44.0027 47.1731 43.8321 46.394C43.6615 45.6149 43.2889 44.8704 42.7474 44.2266C42.2058 43.5828 41.512 43.0594 40.7274 42.7029C39.9428 42.3464 39.0916 42.1677 38.2493 42.1827C37.4069 42.1977 36.5993 42.4059 35.8982 42.7889L37.5135 45.1167C37.8227 44.9479 38.1787 44.8561 38.5501 44.8495C38.9214 44.8429 39.2967 44.9216 39.6426 45.0788C39.9885 45.236 40.2944 45.4667 40.5332 45.7506C40.7719 46.0344 40.9362 46.3626 41.0114 46.7061C41.0866 47.0496 41.0705 47.3977 40.9644 47.7197C40.8583 48.0417 40.6656 48.3276 40.4032 48.5521C40.1409 48.7766 39.8171 48.9327 39.4605 49.0067C39.1038 49.0806 38.7254 49.0701 38.3587 48.9761L37.8152 51.5428Z" fill="#192BC2"/>
</svg>
