<svg width="154" height="97" viewBox="0 0 154 97" fill="none" xmlns="http://www.w3.org/2000/svg">
<path d="M101.759 54.4467C106.246 71.6263 102.474 61.597 88.1728 70.8925C81.7377 70.8925 82.2552 71.6076 82.2552 55.858C82.2552 47.1701 89.6032 32.2804 107.479 32.2805C125.355 32.2805 106.764 45.8662 101.759 54.4467Z" fill="#FAFAFA"/>
<rect x="105.334" y="32.2805" width="28.6015" height="11.1546" fill="#FAFAFA"/>
<rect x="99.6136" y="48.0113" width="25.7414" height="7.15039" fill="#FAFAFA"/>
<rect x="98.1836" y="59.4519" width="21.4512" height="6.43535" fill="#FAFAFA"/>
<path d="M82.1887 77.545L82.4527 53.7316L98.0653 59.727L82.1887 77.545Z" fill="#FAFAFA"/>
<path d="M146.806 32.2805C146.806 35.3147 145.702 39.1636 143.455 40.3702C133.22 45.8662 131.075 42.291 125.355 42.291C118.92 41.576 129.421 42.5157 127.276 40.3702C125.13 38.2247 123.925 35.3147 123.925 32.2805L135.365 32.2805H146.806Z" fill="#FAFAFA"/>
<path d="M135.366 48.0113C135.366 49.9565 134.629 52.424 133.129 53.1975C126.297 56.721 124.865 54.4289 121.047 54.4289C116.751 53.9705 123.761 54.573 122.329 53.1975C120.897 51.8221 120.092 49.9565 120.092 48.0113L127.729 48.0113H135.366Z" fill="#FAFAFA"/>
<path d="M126.785 59.4519C126.785 61.3971 126.251 63.9865 124.955 64.6382C118.205 68.0324 110.603 63.7421 107.479 63.7421C103.964 63.2837 117.291 66.0136 116.119 64.6382C114.947 63.2627 114.289 61.3971 114.289 59.4519L120.537 59.4519H126.785Z" fill="#FAFAFA"/>
<path d="M114.095 51.0083C113.081 51.2684 112.034 51.2975 111.048 51.093C110.062 50.8885 109.166 50.4567 108.441 49.8359C107.716 49.2151 107.182 48.4244 106.889 47.5339C106.596 46.6434 106.551 45.6806 106.759 44.7307C106.967 43.7809 107.421 42.8732 108.082 42.0883C108.742 41.3033 109.588 40.6653 110.544 40.2306C111.501 39.796 112.539 39.5781 113.566 39.5964C114.593 39.6147 115.577 39.8686 116.432 40.3355L114.463 43.1736C114.086 42.9677 113.652 42.8558 113.199 42.8478C112.746 42.8397 112.289 42.9357 111.867 43.1274C111.445 43.319 111.072 43.6003 110.781 43.9463C110.49 44.2924 110.29 44.6925 110.198 45.1113C110.106 45.5301 110.126 45.9546 110.255 46.3472C110.385 46.7398 110.62 47.0883 110.94 47.362C111.259 47.6357 111.654 47.8261 112.089 47.9162C112.524 48.0064 112.985 47.9936 113.432 47.8789L114.095 51.0083Z" fill="#FAFAFA"/>
<path d="M107.524 62.8417C106.509 63.1018 105.463 63.1308 104.477 62.9263C103.49 62.7218 102.595 62.2901 101.869 61.6693C101.144 61.0485 100.611 60.2578 100.318 59.3673C100.024 58.4768 99.9795 57.514 100.188 56.5641C100.396 55.6142 100.85 54.7066 101.51 53.9217C102.17 53.1367 103.016 52.4986 103.973 52.064C104.929 51.6293 105.967 51.4115 106.994 51.4298C108.021 51.4481 109.006 51.7019 109.861 52.1689L107.891 55.007C107.514 54.8011 107.08 54.6892 106.627 54.6811C106.175 54.6731 105.717 54.7691 105.295 54.9607C104.874 55.1524 104.501 55.4337 104.21 55.7797C103.919 56.1258 103.718 56.5259 103.627 56.9447C103.535 57.3635 103.555 57.788 103.684 58.1805C103.813 58.5731 104.048 58.9217 104.368 59.1954C104.688 59.4691 105.083 59.6595 105.518 59.7496C105.952 59.8398 106.414 59.827 106.861 59.7123L107.524 62.8417Z" fill="#FAFAFA"/>
<path d="M51.8718 54.4495C47.3842 71.6299 51.1568 61.6002 65.4585 70.8963C71.894 70.8964 71.3765 71.6114 71.3763 55.8611C71.3762 47.1728 64.0277 32.2823 46.1509 32.2821C28.274 32.2819 46.8662 45.8685 51.8718 54.4495Z" fill="#FAFAFA"/>
<rect width="28.603" height="11.1552" transform="matrix(-1 -9.9888e-06 9.9888e-06 1 48.2966 32.2822)" fill="#FAFAFA"/>
<rect width="25.7427" height="7.15074" transform="matrix(-1 -9.9888e-06 9.9888e-06 1 54.017 48.0137)" fill="#FAFAFA"/>
<rect width="21.4522" height="6.43567" transform="matrix(-1 -9.9888e-06 9.9888e-06 1 55.4472 59.4549)" fill="#FAFAFA"/>
<path d="M71.4434 77.5491L71.1792 53.7345L55.5659 59.7301L71.4434 77.5491Z" fill="#FAFAFA"/>
<path d="M6.82228 32.2816C6.82231 35.316 7.92635 39.1651 10.1734 40.3717C20.4087 45.8681 22.5539 42.2928 28.2745 42.2928C34.7102 41.5778 24.2081 42.5175 26.3537 40.3719C28.4993 38.2263 29.7047 35.3162 29.7047 32.2818L18.2635 32.2817L6.82228 32.2816Z" fill="#FAFAFA"/>
<path d="M18.2631 48.0134C18.2631 49.9587 19.0001 52.4263 20.5 53.1999C27.332 56.7236 28.764 54.4315 32.5825 54.4315C36.8783 53.9731 29.8681 54.5756 31.3003 53.2C32.7325 51.8245 33.5371 49.9589 33.5371 48.0135L25.9001 48.0135L18.2631 48.0134Z" fill="#FAFAFA"/>
<path d="M26.8443 59.4547C26.8443 61.4 27.3784 63.9895 28.6744 64.6412C35.4252 68.0357 43.0274 63.7453 46.1516 63.7453C49.6663 63.2869 36.3393 66.0168 37.5111 64.6413C38.6829 63.2658 39.3412 61.4001 39.3412 59.4548L33.0927 59.4548L26.8443 59.4547Z" fill="#FAFAFA"/>
<path d="M39.5346 51.0107C40.5488 51.2708 41.5954 51.2999 42.5817 51.0954C43.5679 50.8909 44.4635 50.4591 45.189 49.8383C45.9145 49.2175 46.4475 48.4268 46.7409 47.5362C47.0343 46.6457 47.0789 45.6828 46.8709 44.7329C46.6629 43.783 46.2086 42.8753 45.5483 42.0903C44.888 41.3053 44.0421 40.6672 43.0854 40.2325C42.1288 39.7978 41.091 39.58 40.0639 39.5983C39.0368 39.6166 38.0522 39.8704 37.1973 40.3373L39.1669 43.1756C39.5438 42.9697 39.9779 42.8578 40.4307 42.8498C40.8835 42.8417 41.341 42.9377 41.7628 43.1294C42.1845 43.321 42.5575 43.6023 42.8486 43.9484C43.1397 44.2945 43.34 44.6947 43.4317 45.1135C43.5234 45.5323 43.5037 45.9568 43.3744 46.3494C43.245 46.742 43.01 47.0906 42.6902 47.3643C42.3703 47.638 41.9755 47.8283 41.5407 47.9185C41.1058 48.0087 40.6444 47.9958 40.1973 47.8812L39.5346 51.0107Z" fill="#FAFAFA"/>
<path d="M46.107 62.8448C47.1211 63.1049 48.1677 63.134 49.154 62.9295C50.1403 62.725 51.0358 62.2932 51.7613 61.6724C52.4868 61.0516 53.0199 60.2609 53.3132 59.3703C53.6066 58.4798 53.6513 57.5169 53.4432 56.567C53.2352 55.6171 52.7809 54.7094 52.1206 53.9244C51.4603 53.1394 50.6144 52.5013 49.6577 52.0666C48.7011 51.6319 47.6633 51.4141 46.6362 51.4324C45.6091 51.4507 44.6245 51.7045 43.7696 52.1714L45.7392 55.0097C46.1161 54.8038 46.5502 54.6919 47.003 54.6839C47.4558 54.6758 47.9133 54.7718 48.3351 54.9635C48.7569 55.1551 49.1298 55.4364 49.4209 55.7825C49.712 56.1286 49.9123 56.5288 50.004 56.9476C50.0957 57.3664 50.076 57.7909 49.9467 58.1835C49.8174 58.5761 49.5823 58.9247 49.2625 59.1984C48.9426 59.4721 48.5478 59.6625 48.113 59.7526C47.6782 59.8428 47.2168 59.8299 46.7697 59.7153L46.107 62.8448Z" fill="#FAFAFA"/>
</svg>
