<svg width="330" height="242" viewBox="0 0 330 242" fill="none" xmlns="http://www.w3.org/2000/svg">
<path d="M224.801 85.6228C103.126 42.3342 93.712 -9.99616 49.8994 12.4292C25.6747 24.8282 -18.1898 76.0687 20.6383 119.296C58.288 155.683 122.235 147.213 102.892 168.774C83.5506 190.336 40.7945 218.412 83.5506 228.699C126.307 238.986 311.59 211.858 307.512 173.136C304.458 144.139 242.869 136.28 291.295 119.296C324.303 107.72 339.913 93.9154 323.291 80.8378C305.901 67.1532 254.096 86.8926 224.801 85.6228Z" fill="#54B53E" fill-opacity="0.2"/>
<circle cx="45.1079" cy="2.49134" r="2.49135" transform="rotate(-180 45.1079 2.49134)" fill="#B3BBFF"/>
<circle cx="74.8812" cy="239.508" r="2.49135" transform="rotate(-180 74.8812 239.508)" fill="#54B53E"/>
<circle cx="224.713" cy="225.921" r="2.49135" transform="rotate(-180 224.713 225.921)" fill="#6BB55B"/>
<circle cx="4.67131" cy="138.943" r="4.67129" transform="rotate(-180 4.67131 138.943)" fill="#6BB55B"/>
<circle cx="254.805" cy="17.7873" r="4.35987" transform="rotate(-180 254.805 17.7873)" fill="#54B53E"/>
<path d="M242.302 213.007C242.302 215.094 224.142 216.777 197.529 216.777C170.915 216.777 91.9366 215.4 91.9366 213.323C91.9366 211.245 167.61 209.255 194.187 209.255C220.764 209.255 242.302 210.929 242.302 213.007Z" fill="#D1D3D4"/>
<path d="M91.9366 213.323H186.46C187.282 213.332 188.097 213.176 188.854 212.867C189.611 212.557 190.293 212.1 190.858 211.524C191.424 210.948 191.86 210.265 192.139 209.518C192.418 208.772 192.534 207.978 192.48 207.186L183.019 33.0969C182.913 31.4468 182.164 29.8964 180.923 28.7579C179.681 27.6193 178.039 26.977 176.327 26.9602H81.776C80.9544 26.9512 80.1398 27.1063 79.3834 27.4159C78.6269 27.7255 77.9449 28.1829 77.3804 28.7593C76.8158 29.3356 76.3809 30.0185 76.1029 30.765C75.8249 31.5115 75.7099 32.3054 75.765 33.0969L85.2537 207.186C85.357 208.835 86.1039 210.386 87.3441 211.524C88.5842 212.663 90.2253 213.306 91.9366 213.323V213.323Z" fill="#231F20"/>
<path d="M186.46 213.7H91.9365C90.1244 213.681 88.3868 213.001 87.073 211.795C85.7591 210.59 84.9664 208.95 84.8541 207.204L75.3654 33.1145C75.3104 32.2723 75.4359 31.4282 75.7341 30.635C76.0323 29.8418 76.4967 29.1164 77.0983 28.5043C77.6999 27.8922 78.4258 27.4064 79.2307 27.0774C80.0355 26.7484 80.902 26.5832 81.776 26.5921H176.299C178.112 26.6128 179.849 27.2934 181.164 28.4979C182.479 29.7024 183.274 31.3418 183.391 33.0882L192.879 207.186C192.936 208.03 192.811 208.875 192.513 209.67C192.215 210.465 191.75 211.192 191.147 211.805C190.544 212.418 189.817 212.905 189.01 213.234C188.204 213.563 187.335 213.727 186.46 213.717V213.7ZM81.776 27.346C81.0096 27.3384 80.2499 27.4837 79.5444 27.7727C78.8389 28.0618 78.2028 28.4884 77.676 29.0258C77.1492 29.5632 76.743 30.1999 76.4829 30.8959C76.2228 31.5919 76.1144 32.3323 76.1645 33.0707L85.6531 207.186C85.7518 208.735 86.4549 210.191 87.6209 211.26C88.7868 212.328 90.3289 212.931 91.9365 212.946H186.46C187.226 212.954 187.985 212.81 188.691 212.523C189.397 212.237 190.034 211.814 190.564 211.28C191.096 210.735 191.507 210.091 191.771 209.387C192.035 208.683 192.147 207.933 192.099 207.186L182.592 33.1145C182.495 31.5621 181.792 30.1031 180.624 29.0323C179.456 27.9615 177.91 27.3588 176.299 27.346H81.776Z" fill="#231F20"/>
<path d="M98.9191 213.007H193.452C194.273 213.015 195.087 212.859 195.843 212.549C196.598 212.239 197.28 211.781 197.844 211.205C198.408 210.629 198.843 209.947 199.122 209.201C199.4 208.455 199.516 207.662 199.463 206.87L189.974 32.7814C189.871 31.1321 189.124 29.5818 187.884 28.4431C186.643 27.3043 185.002 26.6617 183.291 26.6447H88.7676C87.9457 26.6358 87.1307 26.7909 86.3738 27.1005C85.6168 27.41 84.9344 27.8672 84.3691 28.4434C83.8038 29.0196 83.368 29.7024 83.089 30.4489C82.8099 31.1954 82.6937 31.9895 82.7476 32.7814L92.218 206.879C92.3238 208.53 93.0743 210.081 94.318 211.218C95.5617 212.355 97.2061 212.995 98.9191 213.007V213.007Z" fill="white"/>
<path d="M193.452 213.445H98.9192C97.0952 213.418 95.3485 212.73 94.0262 211.517C92.704 210.303 91.9029 208.654 91.7823 206.897L82.2936 32.8077C82.2374 31.9568 82.3635 31.1037 82.6643 30.302C82.9651 29.5003 83.434 28.7671 84.0416 28.1484C84.6493 27.5296 85.3826 27.0385 86.1958 26.7059C87.009 26.3732 87.8846 26.2062 88.7677 26.2152H183.291C185.109 26.2414 186.851 26.9251 188.172 28.1311C189.494 29.3371 190.299 30.9777 190.428 32.7288L199.917 206.818C199.973 207.668 199.847 208.52 199.547 209.321C199.246 210.123 198.778 210.855 198.172 211.474C197.565 212.093 196.833 212.584 196.021 212.917C195.208 213.25 194.334 213.418 193.452 213.41V213.445ZM88.7677 27.0918C88.0114 27.0846 87.2616 27.2275 86.5648 27.5117C85.8681 27.7959 85.2392 28.2152 84.7173 28.7438C84.1954 29.2724 83.7916 29.8988 83.5308 30.5843C83.2701 31.2698 83.158 31.9998 83.2016 32.7288L92.6903 206.818C92.7991 208.35 93.4994 209.788 94.6526 210.846C95.8059 211.904 97.3284 212.507 98.9192 212.534H193.452C194.211 212.543 194.964 212.4 195.664 212.114C196.364 211.828 196.994 211.405 197.516 210.872C198.038 210.339 198.44 209.708 198.697 209.018C198.954 208.328 199.06 207.593 199.009 206.862L189.52 32.8077C189.411 31.2751 188.711 29.8377 187.558 28.7794C186.404 27.7211 184.882 27.1189 183.291 27.0918H88.7677Z" fill="#231F20"/>
<path d="M186.287 202.066H105.003C103.534 202.05 102.125 201.499 101.058 200.524C99.9914 199.549 99.3442 198.222 99.2461 196.806L90.8925 43.5733C90.8475 42.8857 90.9498 42.1966 91.1929 41.5489C91.436 40.9012 91.8148 40.3089 92.3055 39.8087C92.7962 39.3086 93.3884 38.9115 94.0452 38.6421C94.7019 38.3728 95.4091 38.2369 96.1226 38.2431H177.398C178.868 38.2596 180.278 38.8101 181.346 39.7849C182.415 40.7596 183.064 42.0872 183.164 43.5031L191.508 196.736C191.556 197.424 191.456 198.113 191.214 198.761C190.973 199.41 190.595 200.003 190.105 200.503C189.614 201.004 189.022 201.401 188.365 201.67C187.708 201.939 187.001 202.074 186.287 202.066V202.066ZM96.1226 39.0935C95.5337 39.0868 94.9498 39.1978 94.4075 39.4196C93.8653 39.6414 93.3765 39.9691 92.9718 40.3822C92.5658 40.7974 92.2523 41.2886 92.0509 41.8254C91.8494 42.3622 91.7642 42.9332 91.8005 43.5031L100.154 196.736C100.23 197.933 100.772 199.057 101.671 199.883C102.571 200.71 103.761 201.176 105.003 201.19H186.287C186.875 201.194 187.457 201.082 187.998 200.861C188.539 200.639 189.027 200.313 189.432 199.902C189.837 199.491 190.151 199.005 190.353 198.472C190.556 197.94 190.643 197.373 190.61 196.806L182.256 43.5733C182.176 42.3767 181.631 41.2533 180.731 40.4277C179.83 39.6021 178.64 39.135 177.398 39.1198L96.1226 39.0935Z" fill="#D1D3D4"/>
<path d="M152.037 33.6055H134.277C134.156 33.6055 134.041 33.5593 133.956 33.4771C133.871 33.3949 133.823 33.2834 133.823 33.1672C133.823 33.0509 133.871 32.9394 133.956 32.8572C134.041 32.775 134.156 32.7288 134.277 32.7288H152.037C152.158 32.7288 152.273 32.775 152.359 32.8572C152.444 32.9394 152.492 33.0509 152.492 33.1672C152.492 33.2834 152.444 33.3949 152.359 33.4771C152.273 33.5593 152.158 33.6055 152.037 33.6055Z" fill="#D1D3D4"/>
<path d="M131.644 33.6055H128.538C128.418 33.6055 128.302 33.5593 128.217 33.4771C128.132 33.3949 128.084 33.2834 128.084 33.1672C128.084 33.0509 128.132 32.9394 128.217 32.8572C128.302 32.775 128.418 32.7288 128.538 32.7288H131.644C131.764 32.7288 131.88 32.775 131.965 32.8572C132.05 32.9394 132.098 33.0509 132.098 33.1672C132.098 33.2834 132.05 33.3949 131.965 33.4771C131.88 33.5593 131.764 33.6055 131.644 33.6055Z" fill="#D1D3D4"/>
<path d="M80.8498 68.5496C80.734 68.5498 80.6225 68.5072 80.5381 68.4306C80.4537 68.354 80.4028 68.2492 80.3958 68.1375L79.4152 50.1395C79.4102 50.0223 79.4531 49.908 79.5346 49.8211C79.6162 49.7342 79.7298 49.6817 79.851 49.6749C79.9107 49.6725 79.9702 49.6815 80.0262 49.7014C80.0822 49.7213 80.1336 49.7517 80.1775 49.7907C80.2213 49.8298 80.2568 49.8769 80.2818 49.9292C80.3068 49.9815 80.3208 50.0381 80.3232 50.0957L81.322 68.0937C81.3257 68.1508 81.3175 68.2081 81.2979 68.2621C81.2783 68.3162 81.2478 68.3659 81.208 68.4084C81.1682 68.4508 81.1201 68.4852 81.0664 68.5094C81.0127 68.5337 80.9545 68.5473 80.8952 68.5496H80.8498Z" fill="#D1D3D4"/>
<path d="M116.961 56.9774H106.919L90.5746 38.0764H100.608L116.961 56.9774Z" fill="white"/>
<path d="M116.961 57.372H106.919C106.859 57.371 106.799 57.3581 106.745 57.3339C106.69 57.3098 106.641 57.275 106.601 57.2317L90.2568 38.3307C90.2061 38.2734 90.174 38.203 90.1643 38.1282C90.1546 38.0534 90.1678 37.9775 90.2023 37.9099C90.234 37.8399 90.286 37.7803 90.3521 37.7382C90.4182 37.6962 90.4955 37.6736 90.5746 37.6732H100.608C100.669 37.6722 100.73 37.6851 100.785 37.711C100.841 37.7369 100.889 37.775 100.926 37.8222L117.27 56.7145C117.32 56.7737 117.352 56.8455 117.362 56.9216C117.372 56.9977 117.359 57.0748 117.324 57.144C117.292 57.2111 117.241 57.268 117.177 57.3083C117.112 57.3486 117.038 57.3707 116.961 57.372ZM107.118 56.5742H116.071L100.39 38.4798H91.4372L107.118 56.5742Z" fill="#231F20"/>
<path d="M116.961 56.9774H106.919L107.246 61.7816C107.336 62.9604 107.88 64.0638 108.771 64.875C109.661 65.6861 110.834 66.1463 112.058 66.1649H113.102C113.686 66.1733 114.265 66.0632 114.802 65.8416C115.339 65.62 115.822 65.2919 116.219 64.8786C116.617 64.4654 116.919 63.9761 117.108 63.4426C117.297 62.909 117.368 62.3431 117.315 61.7816L116.961 56.9774Z" fill="white"/>
<path d="M113.102 66.5419H112.085C110.761 66.5219 109.492 66.0256 108.526 65.1501C107.561 64.2746 106.968 63.0829 106.864 61.8079L106.537 57.0038C106.532 56.9491 106.539 56.894 106.557 56.842C106.576 56.79 106.605 56.7423 106.643 56.7019C106.682 56.6614 106.729 56.6292 106.781 56.6072C106.833 56.5852 106.889 56.574 106.946 56.5742H116.988C117.094 56.5741 117.195 56.6133 117.271 56.6835C117.347 56.7537 117.392 56.8496 117.397 56.9512L117.733 61.7553C117.783 62.3696 117.701 62.9873 117.49 63.5691C117.28 64.1509 116.946 64.6839 116.51 65.1343C116.075 65.5846 115.547 65.9423 114.96 66.1847C114.373 66.4271 113.74 66.5487 113.102 66.5419V66.5419ZM107.391 57.372L107.69 61.7553C107.778 62.8287 108.277 63.8319 109.09 64.5694C109.902 65.3069 110.97 65.7257 112.085 65.7442H113.102C113.627 65.7509 114.147 65.6515 114.629 65.4524C115.112 65.2533 115.546 64.9589 115.903 64.5881C116.261 64.2173 116.534 63.7784 116.705 63.2996C116.876 62.8208 116.942 62.3127 116.898 61.8079L116.598 57.372H107.391Z" fill="#231F20"/>
<path d="M126.995 56.9774H116.961L100.608 38.0764H110.641L126.995 56.9774Z" fill="#54B53E"/>
<path d="M126.995 57.372H116.961C116.901 57.3727 116.841 57.3606 116.786 57.3363C116.731 57.3121 116.682 57.2763 116.643 57.2317L100.299 38.3307C100.249 38.2734 100.217 38.203 100.207 38.1282C100.197 38.0534 100.21 37.9775 100.245 37.9099C100.276 37.8399 100.329 37.7803 100.395 37.7382C100.461 37.6962 100.538 37.6736 100.617 37.6732H110.605C110.667 37.6722 110.727 37.6851 110.783 37.711C110.838 37.7369 110.886 37.775 110.923 37.8222L127.267 56.7145C127.32 56.772 127.355 56.8435 127.367 56.9199C127.379 56.9964 127.367 57.0745 127.333 57.1445C127.299 57.2146 127.245 57.2734 127.177 57.3139C127.108 57.3543 127.029 57.3745 126.949 57.372H126.995ZM117.152 56.5742H126.105L110.451 38.4798H101.498L117.152 56.5742Z" fill="#231F20"/>
<path d="M126.995 56.9774H116.961L117.288 61.7816C117.375 62.9618 117.917 64.0676 118.809 64.8795C119.7 65.6915 120.875 66.1503 122.101 66.1649H123.09C123.674 66.1733 124.253 66.0632 124.79 65.8416C125.327 65.62 125.81 65.2919 126.207 64.8786C126.605 64.4654 126.907 63.9761 127.096 63.4426C127.285 62.909 127.356 62.3431 127.303 61.7816L126.995 56.9774Z" fill="#54B53E"/>
<path d="M123.09 66.5419H122.073C120.747 66.524 119.476 66.0287 118.508 65.153C117.541 64.2773 116.947 63.0843 116.843 61.8079L116.516 57.0038C116.511 56.8918 116.55 56.782 116.625 56.6969C116.666 56.6579 116.714 56.627 116.767 56.6059C116.82 56.5848 116.877 56.5741 116.934 56.5742H126.995C127.1 56.576 127.201 56.6155 127.279 56.6852C127.356 56.7548 127.403 56.8496 127.412 56.9512L127.739 61.7553C127.79 62.3711 127.707 62.9903 127.495 63.5733C127.284 64.1563 126.948 64.6902 126.511 65.1408C126.073 65.5914 125.543 65.9488 124.954 66.1901C124.365 66.4314 123.73 66.5512 123.09 66.5419ZM117.37 57.372L117.678 61.7553C117.762 62.8301 118.26 63.8357 119.073 64.5739C119.887 65.3122 120.957 65.7297 122.073 65.7442H123.09C123.615 65.7509 124.135 65.6515 124.618 65.4524C125.1 65.2533 125.534 64.9589 125.891 64.5881C126.249 64.2173 126.522 63.7784 126.693 63.2996C126.865 62.8208 126.93 62.3127 126.886 61.8079L126.577 57.372H117.37Z" fill="#231F20"/>
<path d="M137.037 56.9774H126.995L110.642 38.0764H120.675L137.037 56.9774Z" fill="white"/>
<path d="M137.037 57.372H126.995C126.895 57.3708 126.799 57.3368 126.722 57.2755L110.378 38.3746C110.328 38.3172 110.295 38.2468 110.286 38.172C110.276 38.0972 110.289 38.0214 110.324 37.9538C110.356 37.8844 110.409 37.8253 110.474 37.7834C110.54 37.7416 110.617 37.7185 110.696 37.717H120.729C120.792 37.7167 120.854 37.7299 120.91 37.7557C120.967 37.7815 121.017 37.8192 121.056 37.8661L137.4 56.7583C137.451 56.8175 137.483 56.8894 137.492 56.9654C137.502 57.0415 137.489 57.1187 137.455 57.1879C137.412 57.2554 137.35 57.3091 137.275 57.3419C137.201 57.3748 137.118 57.3852 137.037 57.372V57.372ZM127.194 56.5742H136.147L120.484 38.4798H111.531L127.194 56.5742Z" fill="#231F20"/>
<path d="M137.037 56.9774H126.995L127.331 61.7816C127.417 62.9603 127.958 64.0649 128.848 64.8766C129.737 65.6883 130.91 66.1481 132.134 66.1649H133.151C133.735 66.1733 134.314 66.0632 134.851 65.8416C135.388 65.62 135.871 65.2919 136.268 64.8786C136.665 64.4654 136.968 63.9761 137.157 63.4426C137.346 62.909 137.416 62.3431 137.364 61.7816L137.037 56.9774Z" fill="white"/>
<path d="M133.151 66.5419H132.17C130.846 66.5219 129.577 66.0256 128.611 65.1501C127.646 64.2746 127.053 63.0829 126.949 61.8079L126.622 57.0038C126.617 56.9491 126.624 56.894 126.642 56.842C126.661 56.79 126.69 56.7423 126.728 56.7019C126.767 56.6614 126.814 56.6292 126.866 56.6072C126.918 56.5852 126.974 56.574 127.031 56.5742H137.073C137.179 56.5741 137.28 56.6133 137.356 56.6835C137.432 56.7537 137.477 56.8496 137.482 56.9512L137.818 61.7553C137.869 62.3696 137.786 62.9873 137.575 63.5691C137.365 64.1509 137.031 64.6839 136.596 65.1343C136.16 65.5846 135.632 65.9423 135.045 66.1847C134.458 66.4271 133.825 66.5487 133.187 66.5419H133.151ZM127.44 57.372L127.739 61.7553C127.828 62.8346 128.332 63.8428 129.152 64.5811C129.972 65.3194 131.049 65.7344 132.17 65.7442H133.187C133.712 65.7508 134.233 65.6514 134.716 65.4523C135.199 65.2533 135.633 64.9591 135.991 64.5885C136.349 64.2179 136.623 63.7791 136.796 63.3003C136.968 62.8214 137.035 62.3131 136.992 61.8079L136.683 57.372H127.44Z" fill="#231F20"/>
<path d="M147.071 56.9774H137.037L120.675 38.0764H130.717L147.071 56.9774Z" fill="#54B53E"/>
<path d="M147.071 57.3719H137.083C137.017 57.3867 136.949 57.3856 136.884 57.3687C136.819 57.3519 136.759 57.3199 136.71 57.2755L120.366 38.3307C120.318 38.2723 120.287 38.2021 120.277 38.1277C120.268 38.0534 120.28 37.978 120.312 37.9099C120.345 37.8411 120.398 37.7826 120.463 37.7409C120.529 37.6991 120.605 37.6757 120.684 37.6732H130.718C130.779 37.6741 130.839 37.6879 130.894 37.7136C130.948 37.7394 130.997 37.7764 131.035 37.8222L147.379 56.7144C147.433 56.772 147.468 56.8434 147.479 56.9199C147.491 56.9963 147.479 57.0744 147.445 57.1445C147.411 57.2145 147.357 57.2734 147.289 57.3138C147.221 57.3543 147.142 57.3745 147.062 57.3719H147.071ZM137.228 56.5741H146.181L130.518 38.4797H121.565L137.228 56.5741Z" fill="#231F20"/>
<path d="M147.071 56.9774H137.083L137.41 61.7816C137.498 62.9611 138.041 64.0657 138.932 64.8773C139.823 65.6888 140.997 66.1483 142.222 66.1649H143.239C143.823 66.1733 144.402 66.0632 144.939 65.8416C145.476 65.62 145.959 65.2919 146.356 64.8786C146.753 64.4654 147.056 63.9761 147.245 63.4426C147.434 62.909 147.504 62.3431 147.452 61.7816L147.071 56.9774Z" fill="#54B53E"/>
<path d="M143.193 66.5419H142.158C140.833 66.5238 139.563 66.0282 138.597 65.1523C137.631 64.2765 137.039 63.0836 136.937 61.8079L136.601 57.0038C136.596 56.8918 136.635 56.782 136.71 56.6969C136.751 56.6579 136.799 56.627 136.852 56.6059C136.905 56.5848 136.962 56.5741 137.019 56.5742H147.007C147.113 56.576 147.214 56.6155 147.291 56.6852C147.368 56.7548 147.416 56.8496 147.425 56.9512L147.752 61.7553C147.811 62.3706 147.734 62.991 147.528 63.5758C147.321 64.1606 146.988 64.6966 146.552 65.1486C146.115 65.6006 145.585 65.9584 144.995 66.1985C144.405 66.4387 143.77 66.5557 143.13 66.5419H143.193ZM137.473 57.372L137.782 61.7553C137.867 62.8264 138.363 63.8284 139.172 64.5659C139.981 65.3033 141.046 65.7234 142.158 65.7442H143.175C143.7 65.7509 144.22 65.6515 144.703 65.4524C145.185 65.2533 145.619 64.9589 145.977 64.5881C146.334 64.2173 146.607 63.7784 146.778 63.2996C146.95 62.8208 147.015 62.3127 146.971 61.8079L146.698 57.372H137.473Z" fill="#231F20"/>
<path d="M157.113 56.9774H147.071L130.717 38.0764H140.751L157.113 56.9774Z" fill="white"/>
<path d="M157.113 57.3719H147.071C147.01 57.371 146.951 57.358 146.896 57.3339C146.842 57.3097 146.793 57.2749 146.753 57.2317L130.409 38.3307C130.357 38.2743 130.323 38.2043 130.311 38.1295C130.3 38.0547 130.312 37.9783 130.345 37.9099C130.38 37.8404 130.434 37.7816 130.501 37.7399C130.569 37.6981 130.647 37.675 130.727 37.6732H140.715C140.776 37.6741 140.836 37.6879 140.891 37.7136C140.945 37.7394 140.994 37.7764 141.032 37.8222L157.376 56.7144C157.427 56.7736 157.459 56.8455 157.468 56.9215C157.478 56.9976 157.465 57.0748 157.431 57.144C157.402 57.2049 157.358 57.2577 157.303 57.2976C157.247 57.3375 157.182 57.363 157.113 57.3719V57.3719ZM147.261 56.5741H156.223L140.551 38.4797H131.598L147.261 56.5741Z" fill="#231F20"/>
<path d="M157.113 56.9774H147.071L147.407 61.7816C147.493 62.9618 148.036 64.0676 148.927 64.8795C149.819 65.6915 150.994 66.1503 152.219 66.1649H153.236C153.82 66.1735 154.398 66.0633 154.935 65.8416C155.472 65.62 155.954 65.2917 156.35 64.8783C156.747 64.4648 157.049 63.9754 157.237 63.4419C157.424 62.9084 157.494 62.3427 157.44 61.7816L157.113 56.9774Z" fill="white"/>
<path d="M153.236 66.542H152.219C150.893 66.5241 149.622 66.0288 148.654 65.1531C147.687 64.2774 147.093 63.0844 146.989 61.808L146.698 57.0038C146.694 56.9482 146.701 56.8922 146.719 56.8394C146.738 56.7866 146.768 56.7381 146.807 56.697C146.846 56.6574 146.892 56.626 146.944 56.6048C146.995 56.5837 147.051 56.5733 147.107 56.5743H157.15C157.255 56.5742 157.356 56.6133 157.432 56.6836C157.508 56.7538 157.553 56.8497 157.558 56.9512L157.894 61.7554C157.945 62.3689 157.862 62.9859 157.652 63.5671C157.442 64.1482 157.109 64.6809 156.675 65.1311C156.24 65.5813 155.713 65.9392 155.127 66.1821C154.542 66.425 153.91 66.5476 153.272 66.542H153.236ZM147.516 57.372L147.815 61.7554C147.903 62.8302 148.403 63.8347 149.218 64.5724C150.032 65.3101 151.102 65.7279 152.219 65.7442H153.236C153.76 65.7496 154.28 65.6493 154.762 65.4497C155.243 65.2502 155.677 64.9557 156.034 64.5853C156.391 64.2148 156.664 63.7764 156.836 63.2982C157.008 62.82 157.075 62.3124 157.032 61.808L156.686 57.372H147.516Z" fill="#231F20"/>
<path d="M167.147 56.9774H157.113L140.751 38.0764H150.784L167.147 56.9774Z" fill="#54B53E"/>
<path d="M167.147 57.3719H157.113C157.053 57.3727 156.993 57.3605 156.938 57.3362C156.883 57.312 156.834 57.2763 156.795 57.2317L140.451 38.3307C140.399 38.2743 140.365 38.2043 140.354 38.1295C140.343 38.0547 140.354 37.9783 140.388 37.9099C140.423 37.8404 140.477 37.7816 140.544 37.7399C140.611 37.6981 140.689 37.675 140.769 37.6732H150.784C150.845 37.6741 150.905 37.6879 150.96 37.7136C151.015 37.7394 151.064 37.7764 151.102 37.8222L167.446 56.7144C167.5 56.772 167.534 56.8434 167.546 56.9199C167.558 56.9963 167.546 57.0744 167.512 57.1445C167.478 57.2145 167.424 57.2734 167.356 57.3138C167.288 57.3543 167.209 57.3745 167.129 57.3719H167.147ZM157.304 56.5741H166.257L150.594 38.4797H141.632L157.304 56.5741Z" fill="#231F20"/>
<path d="M167.147 56.9774H157.113L157.44 61.7816C157.531 62.9604 158.075 64.0638 158.965 64.875C159.856 65.6861 161.028 66.1463 162.252 66.1649H163.269C163.853 66.1733 164.433 66.0632 164.97 65.8416C165.507 65.62 165.989 65.2919 166.387 64.8786C166.784 64.4654 167.087 63.9761 167.275 63.4426C167.464 62.909 167.535 62.3431 167.483 61.7816L167.147 56.9774Z" fill="#54B53E"/>
<path d="M163.269 66.5419H162.252C160.928 66.5219 159.659 66.0256 158.693 65.1501C157.728 64.2746 157.135 63.0829 157.031 61.8079L156.686 57.0038C156.681 56.8918 156.72 56.782 156.795 56.6969C156.836 56.6579 156.884 56.627 156.937 56.6059C156.99 56.5848 157.047 56.5741 157.104 56.5742H167.138C167.243 56.576 167.344 56.6155 167.421 56.6852C167.499 56.7548 167.546 56.8496 167.555 56.9512L167.891 61.7553C167.943 62.3741 167.862 62.9965 167.652 63.5834C167.443 64.1703 167.11 64.709 166.674 65.1656C166.236 65.6098 165.707 65.9615 165.121 66.1984C164.535 66.4353 163.905 66.5523 163.269 66.5419V66.5419ZM157.594 57.372L157.903 61.7553C157.991 62.8287 158.49 63.8319 159.302 64.5694C160.115 65.3069 161.183 65.7257 162.298 65.7442H163.315C163.839 65.7509 164.36 65.6515 164.842 65.4524C165.325 65.2533 165.759 64.9589 166.116 64.5881C166.474 64.2173 166.747 63.7784 166.918 63.2996C167.089 62.8208 167.155 62.3127 167.11 61.8079L166.802 57.372H157.594Z" fill="#231F20"/>
<path d="M177.189 56.9774H167.147L150.784 38.0764H160.818L177.189 56.9774Z" fill="white"/>
<path d="M177.189 57.3719H167.147C167.087 57.371 167.027 57.358 166.973 57.3339C166.918 57.3098 166.869 57.2749 166.829 57.2317L150.485 38.3307C150.433 38.2743 150.399 38.2043 150.387 38.1295C150.376 38.0547 150.388 37.9783 150.421 37.9099C150.456 37.8404 150.51 37.7816 150.577 37.7399C150.645 37.6981 150.723 37.675 150.803 37.6732H160.836C160.897 37.6728 160.958 37.6861 161.013 37.7119C161.068 37.7378 161.116 37.7755 161.154 37.8222L177.498 56.7144C177.546 56.7746 177.577 56.8463 177.587 56.9219C177.596 56.9976 177.585 57.0743 177.552 57.144C177.519 57.2104 177.468 57.2668 177.404 57.307C177.34 57.3472 177.266 57.3696 177.189 57.3719ZM167.337 56.5742H176.299L160.627 38.4797H151.674L167.337 56.5742Z" fill="#231F20"/>
<path d="M177.189 56.9774H167.147L167.483 61.7816C167.571 62.9611 168.115 64.0657 169.006 64.8773C169.897 65.6888 171.07 66.1483 172.295 66.1649H173.312C173.896 66.1735 174.474 66.0633 175.011 65.8416C175.548 65.62 176.03 65.2917 176.426 64.8783C176.823 64.4648 177.125 63.9754 177.313 63.4419C177.5 62.9084 177.57 62.3427 177.516 61.7816L177.189 56.9774Z" fill="white"/>
<path d="M173.312 66.542H172.295C170.97 66.5221 169.7 66.0261 168.732 65.1508C167.765 64.2755 167.171 63.0837 167.065 61.808L166.729 57.0038C166.727 56.8908 166.769 56.7812 166.847 56.697C166.885 56.6574 166.932 56.626 166.983 56.6048C167.035 56.5837 167.091 56.5733 167.147 56.5743H177.189C177.294 56.5742 177.396 56.6133 177.472 56.6836C177.548 56.7538 177.593 56.8497 177.598 56.9512L177.934 61.7554C177.993 62.3707 177.916 62.9911 177.71 63.5759C177.503 64.1607 177.17 64.6967 176.734 65.1487C176.297 65.6007 175.767 65.9585 175.177 66.1986C174.588 66.4387 173.952 66.5558 173.312 66.542V66.542ZM167.583 57.372L167.891 61.7554C167.977 62.8295 168.475 63.8339 169.288 64.5717C170.101 65.3096 171.17 65.7278 172.286 65.7442H173.303C173.828 65.7509 174.348 65.6515 174.83 65.4524C175.313 65.2533 175.747 64.9589 176.104 64.5882C176.462 64.2174 176.735 63.7785 176.906 63.2997C177.077 62.8209 177.143 62.3127 177.098 61.808L176.79 57.372H167.583Z" fill="#231F20"/>
<path d="M187.223 56.9774H177.189L160.818 38.0764H170.851L187.223 56.9774Z" fill="#54B53E"/>
<path d="M187.223 57.3719H177.235C177.174 57.3727 177.114 57.3605 177.059 57.3362C177.004 57.312 176.956 57.2763 176.917 57.2317L160.573 38.3307C160.522 38.2733 160.49 38.2029 160.48 38.1281C160.47 38.0534 160.484 37.9775 160.518 37.9099C160.55 37.8398 160.602 37.7802 160.668 37.7382C160.734 37.6962 160.811 37.6736 160.89 37.6732H170.879C170.94 37.6728 171 37.6861 171.055 37.7119C171.111 37.7378 171.159 37.7755 171.196 37.8222L187.54 56.7144C187.59 56.7732 187.621 56.8442 187.631 56.9193C187.64 56.9944 187.628 57.0706 187.595 57.1392C187.561 57.2078 187.509 57.266 187.443 57.3072C187.377 57.3483 187.301 57.3708 187.223 57.3719V57.3719ZM177.38 56.5742H186.333L170.661 38.4797H161.708L177.38 56.5742Z" fill="#231F20"/>
<path d="M187.223 56.9774H177.235L177.561 61.7816C177.652 62.9619 178.197 64.0666 179.09 64.8779C179.982 65.6893 181.157 66.1484 182.383 66.1649H183.4C183.983 66.1735 184.562 66.0633 185.099 65.8416C185.635 65.62 186.118 65.2917 186.514 64.8783C186.911 64.4648 187.213 63.9754 187.4 63.4419C187.588 62.9084 187.658 62.3427 187.604 61.7816L187.223 56.9774Z" fill="#54B53E"/>
<path d="M183.354 66.5419H182.338C181.012 66.524 179.74 66.0287 178.773 65.153C177.805 64.2773 177.211 63.0844 177.107 61.8079L176.771 57.0038C176.766 56.8918 176.805 56.782 176.88 56.6969C176.921 56.6579 176.969 56.627 177.022 56.6059C177.075 56.5848 177.132 56.5741 177.189 56.5742H187.177C187.283 56.576 187.384 56.6155 187.461 56.6852C187.538 56.7548 187.586 56.8496 187.595 56.9512L187.931 61.7553C187.981 62.3689 187.899 62.9859 187.689 63.567C187.479 64.1482 187.146 64.6808 186.711 65.131C186.277 65.5812 185.75 65.9391 185.164 66.182C184.578 66.425 183.947 66.5475 183.309 66.5419H183.354ZM177.625 57.372L177.934 61.7553C178.022 62.8302 178.522 63.8346 179.336 64.5723C180.151 65.31 181.221 65.7279 182.338 65.7442H183.354C183.878 65.7496 184.398 65.6493 184.879 65.4497C185.36 65.25 185.793 64.9555 186.15 64.5848C186.506 64.2142 186.779 63.7757 186.949 63.2975C187.12 62.8193 187.185 62.3119 187.141 61.8079L186.832 57.372H177.625Z" fill="#231F20"/>
<path d="M197.265 56.9774H187.223L170.851 38.0764H180.885L197.265 56.9774Z" fill="white"/>
<path d="M197.265 57.372H187.223C187.162 57.371 187.103 57.3581 187.048 57.3339C186.994 57.3098 186.945 57.275 186.905 57.2317L170.561 38.3307C170.51 38.2734 170.478 38.203 170.468 38.1282C170.459 38.0534 170.472 37.9775 170.506 37.9099C170.538 37.8399 170.59 37.7803 170.656 37.7382C170.722 37.6962 170.799 37.6736 170.879 37.6732H180.912C180.973 37.6722 181.034 37.6851 181.089 37.711C181.145 37.7369 181.193 37.775 181.23 37.8222L197.574 56.7145C197.622 56.7746 197.653 56.8463 197.663 56.922C197.672 56.9976 197.66 57.0744 197.628 57.144C197.595 57.2105 197.544 57.2668 197.48 57.307C197.416 57.3472 197.341 57.3697 197.265 57.372ZM187.413 56.5742H196.375L180.694 38.4798H171.741L187.413 56.5742Z" fill="#231F20"/>
<path d="M197.265 56.9774H187.223L187.559 61.7816C187.649 62.9604 188.193 64.0638 189.084 64.875C189.974 65.6861 191.147 66.1463 192.371 66.1649H193.388C193.972 66.1733 194.551 66.0632 195.088 65.8416C195.625 65.62 196.108 65.2919 196.505 64.8786C196.902 64.4654 197.205 63.9761 197.394 63.4426C197.583 62.909 197.653 62.3431 197.601 61.7816L197.265 56.9774Z" fill="white"/>
<path d="M193.388 66.542H192.371C191.046 66.5201 189.777 66.0235 188.811 65.1486C187.844 64.2736 187.249 63.083 187.141 61.808L186.814 57.0038C186.809 56.9482 186.816 56.8922 186.835 56.8394C186.854 56.7866 186.884 56.7381 186.923 56.697C186.961 56.6574 187.008 56.626 187.059 56.6048C187.111 56.5837 187.167 56.5733 187.223 56.5743H197.265C197.37 56.5763 197.47 56.6161 197.546 56.6859C197.621 56.7557 197.667 56.8504 197.674 56.9512L198.01 61.7554C198.069 62.3707 197.992 62.9911 197.786 63.5759C197.579 64.1607 197.246 64.6967 196.81 65.1487C196.373 65.6007 195.843 65.9585 195.253 66.1986C194.664 66.4387 194.028 66.5558 193.388 66.542V66.542ZM187.668 57.372L187.976 61.7554C188.062 62.8295 188.56 63.8339 189.373 64.5717C190.186 65.3096 191.255 65.7278 192.371 65.7442H193.388C193.913 65.7509 194.433 65.6515 194.915 65.4524C195.398 65.2533 195.832 64.9589 196.189 64.5882C196.547 64.2174 196.82 63.7785 196.991 63.2997C197.162 62.8209 197.228 62.3127 197.183 61.808L196.875 57.372H187.668Z" fill="#231F20"/>
<path d="M90.5746 38.0764L91.864 56.9774H106.919L90.5746 38.0764Z" fill="#231F20"/>
<path d="M106.919 57.3632H91.8639C91.7631 57.3614 91.6666 57.3237 91.5928 57.2574C91.5191 57.191 91.4733 57.1007 91.4644 57.0037L90.175 38.1028C90.1707 38.0209 90.1928 37.9398 90.2384 37.8707C90.2839 37.8016 90.3507 37.7479 90.4293 37.717C90.5077 37.6874 90.5939 37.6824 90.6754 37.7029C90.757 37.7234 90.8297 37.7682 90.8833 37.831L107.227 56.7232C107.275 56.7802 107.306 56.849 107.315 56.9217C107.325 56.9945 107.313 57.0685 107.282 57.1352C107.25 57.2029 107.199 57.2604 107.135 57.3009C107.071 57.3413 106.995 57.3629 106.919 57.3632V57.3632ZM92.218 56.5917H106.047L91.0376 39.2337L92.218 56.5917Z" fill="#231F20"/>
<path d="M247.16 102.775C247.081 102.771 247.003 102.75 246.933 102.713C246.859 102.67 246.798 102.608 246.758 102.534C246.718 102.46 246.7 102.376 246.706 102.293C246.606 101.144 244.1 92.7281 241.803 92.8596C241.667 92.8659 241.535 92.9015 241.416 92.9637C241.296 93.0259 241.193 93.1132 241.113 93.219C239.778 94.7181 239.996 99.9431 240.205 101.828C240.215 101.944 240.178 102.059 240.102 102.149C240.025 102.239 239.916 102.297 239.796 102.31C239.736 102.316 239.676 102.311 239.619 102.294C239.561 102.278 239.508 102.25 239.461 102.213C239.415 102.177 239.376 102.132 239.348 102.08C239.32 102.029 239.302 101.973 239.297 101.916C239.297 101.626 238.57 94.7357 240.432 92.6492C240.591 92.4537 240.792 92.2932 241.02 92.1783C241.249 92.0634 241.5 91.9968 241.757 91.9829C242.711 91.9303 243.664 92.6404 244.581 94.0694C246.161 96.5504 247.877 102.021 247.569 102.547C247.529 102.617 247.469 102.676 247.397 102.716C247.325 102.756 247.243 102.777 247.16 102.775V102.775Z" fill="#231F20"/>
<path d="M243.446 129.75C243.334 129.748 243.226 129.708 243.142 129.635C243.059 129.562 243.005 129.463 242.992 129.355L240.05 104.659C240.043 104.602 240.048 104.544 240.064 104.488C240.08 104.432 240.108 104.38 240.145 104.334C240.182 104.289 240.228 104.25 240.28 104.222C240.333 104.194 240.39 104.175 240.45 104.169C240.51 104.162 240.57 104.166 240.628 104.182C240.686 104.197 240.74 104.224 240.787 104.26C240.834 104.296 240.874 104.34 240.903 104.391C240.932 104.441 240.951 104.497 240.958 104.554L243.855 129.259C243.862 129.316 243.858 129.374 243.842 129.429C243.826 129.485 243.798 129.537 243.761 129.582C243.724 129.627 243.677 129.664 243.625 129.691C243.572 129.719 243.515 129.736 243.455 129.741L243.446 129.75Z" fill="#D1D3D4"/>
<path d="M229.79 132.31C229.617 131.95 231.161 103.143 231.161 103.143L248.913 105.203L252.817 131.81L229.79 132.31Z" fill="white"/>
<path d="M229.79 132.748C229.704 132.746 229.62 132.722 229.548 132.677C229.476 132.632 229.418 132.569 229.381 132.494C229.318 132.362 229.163 132.029 230.707 103.117C230.71 103.056 230.726 102.996 230.754 102.942C230.783 102.888 230.822 102.84 230.87 102.801C230.917 102.762 230.972 102.733 231.032 102.716C231.092 102.699 231.154 102.695 231.215 102.705L248.967 104.765C249.067 104.777 249.16 104.82 249.232 104.888C249.304 104.956 249.351 105.045 249.367 105.142L253.271 131.749C253.281 131.81 253.276 131.872 253.257 131.932C253.238 131.991 253.206 132.045 253.162 132.09C253.12 132.138 253.069 132.176 253.011 132.204C252.953 132.231 252.89 132.246 252.826 132.248L229.799 132.748H229.79ZM231.606 103.634C231.052 114.154 230.28 129.224 230.253 131.854L252.318 131.38L248.531 105.598L231.606 103.634Z" fill="#D1D3D4"/>
<path d="M231.161 103.143L233.703 100.048L253.407 100.452L248.913 105.203L231.161 103.143Z" fill="#D1D3D4"/>
<path d="M248.913 105.641H248.858L231.143 103.572C231.064 103.563 230.989 103.534 230.925 103.488C230.861 103.442 230.811 103.38 230.78 103.309C230.749 103.236 230.739 103.156 230.75 103.078C230.761 102.999 230.793 102.925 230.843 102.862L233.386 99.7764C233.428 99.7225 233.483 99.6792 233.546 99.6503C233.609 99.6213 233.679 99.6074 233.749 99.6098L253.453 100.013C253.54 100.018 253.624 100.046 253.696 100.094C253.768 100.142 253.825 100.208 253.861 100.285C253.894 100.362 253.903 100.446 253.889 100.528C253.875 100.611 253.837 100.687 253.78 100.749L249.249 105.492C249.206 105.538 249.154 105.575 249.097 105.601C249.039 105.626 248.976 105.64 248.913 105.641V105.641ZM232.051 102.801L248.767 104.738L252.399 100.872L233.921 100.495L232.051 102.801Z" fill="#D1D3D4"/>
<path d="M253.407 100.452L257.993 129.048L252.817 131.81L248.913 105.203L253.407 100.452Z" fill="white"/>
<path d="M252.817 132.248C252.747 132.247 252.678 132.229 252.617 132.196C252.551 132.166 252.494 132.121 252.451 132.064C252.408 132.008 252.381 131.941 252.372 131.871L248.468 105.264C248.457 105.2 248.462 105.134 248.483 105.071C248.503 105.009 248.538 104.952 248.586 104.905L253.071 100.162C253.128 100.1 253.201 100.055 253.283 100.032C253.365 100.009 253.452 100.008 253.534 100.031C253.617 100.056 253.69 100.103 253.746 100.167C253.803 100.23 253.839 100.308 253.852 100.39L258.438 128.987C258.45 129.075 258.435 129.164 258.394 129.244C258.354 129.324 258.29 129.39 258.211 129.434L253.044 132.187C252.975 132.225 252.897 132.246 252.817 132.248V132.248ZM249.394 105.343L253.18 131.117L257.475 128.812L253.08 101.425L249.394 105.343Z" fill="#D1D3D4"/>
<path d="M243.9 107.719C243.841 107.716 243.782 107.701 243.728 107.676C243.675 107.651 243.627 107.616 243.587 107.572C243.547 107.529 243.517 107.479 243.497 107.424C243.478 107.37 243.47 107.312 243.473 107.255C243.773 102.082 243.274 93.7802 240.677 93.5522C240.465 93.538 240.252 93.5666 240.052 93.636C239.852 93.7054 239.669 93.8142 239.515 93.9555C237.254 95.8316 236.282 103.213 236.091 105.905C236.082 106.019 236.026 106.126 235.936 106.201C235.846 106.277 235.729 106.315 235.61 106.308C235.551 106.304 235.493 106.29 235.44 106.264C235.386 106.239 235.339 106.204 235.3 106.16C235.261 106.117 235.231 106.067 235.213 106.012C235.194 105.958 235.188 105.9 235.192 105.843C235.192 105.431 235.91 95.779 238.924 93.2892C239.169 93.0747 239.456 92.9104 239.768 92.8064C240.08 92.7024 240.411 92.6609 240.74 92.6843C245.053 93.0525 244.445 105.834 244.372 107.307C244.363 107.421 244.309 107.527 244.221 107.604C244.133 107.681 244.019 107.722 243.9 107.719V107.719Z" fill="#231F20"/>
<path d="M242.039 102.731C241.949 102.732 241.861 102.706 241.786 102.658C241.712 102.609 241.654 102.54 241.621 102.459C241.494 102.161 238.434 94.99 239.723 92.1759C239.828 91.9239 239.986 91.6961 240.188 91.5073C240.39 91.3184 240.631 91.1729 240.895 91.08C241.894 90.7294 243.128 91.1852 244.572 92.4301C247.178 94.6568 250.756 99.987 250.62 100.557C250.62 100.673 250.572 100.785 250.487 100.867C250.401 100.949 250.286 100.995 250.166 100.995C250.045 100.995 249.93 100.949 249.844 100.867C249.759 100.785 249.712 100.673 249.712 100.557C249.33 99.6802 243.791 91.0011 241.185 91.9129C241.037 91.9664 240.902 92.0507 240.791 92.1597C240.679 92.2687 240.594 92.3999 240.541 92.5441C239.633 94.5867 241.594 100.162 242.447 102.135C242.47 102.188 242.481 102.246 242.48 102.303C242.479 102.361 242.466 102.418 242.443 102.471C242.419 102.524 242.385 102.572 242.342 102.612C242.299 102.652 242.249 102.683 242.193 102.705C242.144 102.724 242.092 102.733 242.039 102.731Z" fill="#231F20"/>
<path d="M255.25 131.074C255.162 131.073 255.076 131.048 255.002 131.001C254.928 130.954 254.869 130.888 254.833 130.811L243.374 105.168C243.35 105.115 243.337 105.058 243.336 105C243.335 104.943 243.346 104.885 243.368 104.832C243.39 104.778 243.422 104.729 243.464 104.687C243.505 104.646 243.555 104.613 243.61 104.589C243.665 104.566 243.724 104.554 243.783 104.553C243.843 104.552 243.903 104.562 243.958 104.584C244.014 104.605 244.065 104.636 244.108 104.676C244.151 104.717 244.185 104.764 244.209 104.817L255.659 130.46C255.683 130.513 255.696 130.57 255.697 130.628C255.698 130.686 255.688 130.743 255.666 130.797C255.644 130.85 255.611 130.9 255.569 130.941C255.528 130.983 255.478 131.016 255.423 131.039C255.369 131.062 255.31 131.074 255.25 131.074V131.074Z" fill="#D1D3D4"/>
<path d="M241.576 138.139C241.276 137.806 233.249 106.343 233.249 106.343L253.035 103.003L266.174 130.381L241.576 138.139Z" fill="white"/>
<path d="M241.576 138.578C241.512 138.577 241.449 138.564 241.391 138.538C241.333 138.512 241.282 138.475 241.24 138.429C241.149 138.324 240.858 138.017 232.804 106.448C232.789 106.39 232.787 106.329 232.798 106.27C232.809 106.211 232.833 106.155 232.868 106.106C232.901 106.056 232.945 106.012 232.997 105.979C233.048 105.946 233.107 105.923 233.168 105.913L252.962 102.564C253.06 102.55 253.16 102.567 253.247 102.613C253.334 102.659 253.403 102.731 253.443 102.819L266.555 130.197C266.582 130.253 266.596 130.315 266.596 130.377C266.596 130.439 266.582 130.5 266.555 130.556C266.5 130.669 266.403 130.757 266.283 130.802L241.685 138.552C241.65 138.566 241.613 138.575 241.576 138.578V138.578ZM233.803 106.693C236.745 118.222 241.067 134.887 241.866 137.587L265.547 130.118L252.772 103.485L233.803 106.693Z" fill="#D1D3D4"/>
<path d="M233.249 106.343L234.947 102.222L256.267 96.4802L253.035 103.003L233.249 106.343Z" fill="#D1D3D4"/>
<path d="M233.249 106.781C233.181 106.78 233.114 106.765 233.053 106.736C232.992 106.707 232.938 106.666 232.895 106.614C232.846 106.553 232.814 106.481 232.801 106.404C232.789 106.328 232.796 106.249 232.823 106.176L234.53 102.065C234.552 102 234.592 101.942 234.644 101.896C234.697 101.85 234.76 101.817 234.829 101.802L256.149 96.0594C256.232 96.0381 256.32 96.0399 256.402 96.0647C256.484 96.0896 256.557 96.1364 256.612 96.1996C256.67 96.2636 256.707 96.3428 256.719 96.427C256.73 96.5113 256.715 96.5969 256.676 96.673L253.444 103.187C253.414 103.25 253.368 103.306 253.311 103.348C253.254 103.391 253.188 103.42 253.117 103.432L233.322 106.772L233.249 106.781ZM235.283 102.591L233.967 105.773L252.726 102.608L255.45 97.164L235.283 102.591Z" fill="#D1D3D4"/>
<path d="M256.267 96.4802L270.804 125.805L266.174 130.381L253.035 103.003L256.267 96.4802Z" fill="white"/>
<path d="M266.174 130.819H266.101C266.028 130.807 265.959 130.777 265.9 130.733C265.842 130.688 265.795 130.631 265.765 130.565L252.626 103.187C252.597 103.128 252.582 103.063 252.582 102.998C252.582 102.933 252.597 102.869 252.626 102.81L255.859 96.2961C255.9 96.2269 255.96 96.1695 256.032 96.1296C256.103 96.0896 256.185 96.0686 256.267 96.0686C256.35 96.0686 256.432 96.0896 256.503 96.1296C256.575 96.1695 256.635 96.2269 256.676 96.2961L271.204 125.612C271.244 125.694 271.257 125.786 271.241 125.876C271.225 125.965 271.18 126.048 271.113 126.112L266.482 130.688C266.4 130.768 266.29 130.815 266.174 130.819V130.819ZM253.534 103.003L266.31 129.627L270.26 125.717L256.267 97.4971L253.534 103.003Z" fill="#D1D3D4"/>
<path d="M238.961 108.324C238.857 108.325 238.757 108.291 238.676 108.229C238.595 108.167 238.539 108.08 238.516 107.982C238.407 107.535 235.91 96.9625 238.307 93.3594C238.491 93.0527 238.74 92.7867 239.037 92.5783C239.334 92.37 239.673 92.2239 240.032 92.1496C244.754 91.2203 248.377 105.116 248.776 106.702C248.791 106.758 248.794 106.816 248.785 106.873C248.776 106.93 248.755 106.985 248.724 107.034C248.693 107.083 248.651 107.126 248.603 107.159C248.554 107.192 248.499 107.216 248.44 107.228C248.325 107.255 248.203 107.237 248.101 107.178C248 107.119 247.926 107.024 247.896 106.913C246.47 101.223 243.129 92.4301 240.214 93.0087C239.975 93.0643 239.751 93.166 239.554 93.3077C239.358 93.4493 239.193 93.6279 239.07 93.8328C237.254 96.568 238.688 104.835 239.397 107.789C239.411 107.845 239.414 107.903 239.405 107.96C239.396 108.017 239.376 108.072 239.344 108.121C239.313 108.17 239.272 108.213 239.223 108.246C239.174 108.279 239.119 108.303 239.061 108.315L238.961 108.324Z" fill="#231F20"/>
<path d="M198.536 107.412C197.892 105.072 198.382 102.783 201.378 102.293C205.918 101.574 210.876 104.8 215.053 106.124C216.515 106.588 224.369 108.429 224.369 108.429C224.369 108.429 225.586 106.299 225.958 105.475C226.775 103.616 227.52 101.723 228.255 99.8291C229.781 95.9103 230.934 92.1494 233.467 88.7129C233.989 88.0008 234.55 87.316 235.147 86.6615C236.719 84.8495 238.753 83.4654 241.049 82.6463C241.118 82.6184 241.192 82.604 241.267 82.604C241.342 82.604 241.416 82.6184 241.485 82.6463C241.776 82.8129 241.53 83.2425 241.267 83.4529L238.225 85.9952C239.064 85.2406 240.009 84.6032 241.031 84.1016C241.503 83.8649 242.938 82.9444 243.437 83.4266C244.136 84.1016 242.529 84.6802 242.184 84.952C241.34 85.5919 240.532 86.302 239.66 86.9157C240.783 86.1348 242.003 85.4927 243.292 85.0046C243.9 84.7766 244.827 84.724 244.972 85.3465C245.063 85.7497 244.699 86.1004 244.373 86.3634L241.767 88.4674C242.493 87.8888 243.819 89.0285 244.073 89.6246C244.255 90.1117 244.307 90.6353 244.225 91.147C244.142 91.6587 243.928 92.1421 243.601 92.5527C243.453 92.7507 243.256 92.9104 243.029 93.0173C242.913 93.0665 242.787 93.0867 242.662 93.076C242.536 93.0652 242.416 93.0239 242.311 92.956C241.494 92.3511 242.384 90.8783 241.067 90.5364C240.794 90.4871 240.512 90.5355 240.273 90.6726C240.034 90.8098 239.855 91.0262 239.769 91.2815C239.691 91.5397 239.687 91.8131 239.755 92.0736C239.824 92.3341 239.963 92.5722 240.159 92.7631C240.459 93.0787 240.913 93.3592 240.904 93.7888C240.892 93.9154 240.85 94.0377 240.781 94.1458C240.711 94.2538 240.617 94.3448 240.504 94.4112C240.341 94.5108 240.159 94.5776 239.969 94.6076C239.779 94.6377 239.584 94.6304 239.397 94.5862C239.21 94.542 239.033 94.4618 238.879 94.3504C238.724 94.239 238.595 94.0987 238.498 93.9378C238.325 93.6135 238.134 93.1401 237.771 93.2277C237.643 93.2695 237.534 93.3532 237.463 93.4644C237.009 93.9817 235.401 102.801 235.029 105.738C234.53 109.735 233.713 118.292 228.51 119.405C228.345 119.437 228.178 119.46 228.01 119.475C223.089 119.949 218.022 118.669 213.41 117.152C209.56 115.898 205.138 114.881 201.842 112.497C200.222 111.173 199.067 109.396 198.536 107.412V107.412Z" fill="white"/>
<path d="M225.849 119.922C221.4 119.922 217.023 118.712 213.246 117.485C212.501 117.24 211.739 117.003 210.967 116.766C207.68 115.767 204.284 114.724 201.569 112.769C199.892 111.396 198.691 109.56 198.128 107.509V107.509C197.895 106.857 197.807 106.165 197.868 105.478C197.929 104.791 198.138 104.124 198.482 103.52C198.804 103.068 199.225 102.689 199.714 102.409C200.203 102.129 200.749 101.954 201.315 101.898C204.611 101.372 208.043 102.836 211.366 104.247C212.71 104.817 213.972 105.361 215.18 105.746C216.388 106.132 222.698 107.623 224.16 107.964C224.496 107.368 225.295 105.939 225.577 105.334C226.412 103.441 227.166 101.512 227.874 99.7062C228.14 99.0224 228.395 98.3474 228.637 97.6811C229.853 94.4375 230.998 91.3867 233.131 88.4936C233.712 87.7046 234.275 87.0296 234.829 86.4159C236.45 84.5452 238.551 83.1183 240.922 82.2781C241.043 82.2233 241.175 82.1949 241.308 82.1949C241.441 82.1949 241.573 82.2233 241.694 82.2781C241.786 82.3293 241.865 82.4016 241.922 82.4887C241.979 82.5758 242.013 82.675 242.021 82.7778C242.032 82.8993 242.016 83.0217 241.975 83.1372C242.611 82.8567 243.301 82.6901 243.728 83.1372C243.832 83.2295 243.913 83.3442 243.964 83.4721C244.014 83.6 244.033 83.7375 244.018 83.8736C243.97 84.1065 243.846 84.3185 243.664 84.4785C244.054 84.3919 244.463 84.4319 244.826 84.5925C244.959 84.6561 245.075 84.7486 245.165 84.8627C245.255 84.9767 245.316 85.1093 245.344 85.25C245.507 85.9425 244.854 86.4685 244.609 86.6614L242.892 88.0465C243.551 88.3411 244.09 88.8372 244.427 89.458C244.636 90.0113 244.697 90.6065 244.605 91.1887C244.513 91.771 244.271 92.3214 243.9 92.7893C243.712 93.0432 243.458 93.2456 243.165 93.3767C242.979 93.4475 242.778 93.4702 242.58 93.4425C242.383 93.4148 242.196 93.3377 242.039 93.2189C241.841 93.0389 241.687 92.8192 241.586 92.5754C241.486 92.3315 241.442 92.0694 241.458 91.8075C241.412 91.2026 241.367 90.9834 240.949 90.8694C240.778 90.848 240.604 90.8843 240.457 90.9721C240.309 91.0599 240.198 91.1939 240.141 91.3516C240.089 91.5423 240.09 91.7428 240.142 91.9333C240.195 92.1238 240.298 92.298 240.441 92.4387L240.65 92.6315C240.834 92.7615 240.988 92.9281 241.101 93.1201C241.214 93.3121 241.283 93.5251 241.303 93.7449C241.292 93.9362 241.234 94.1221 241.133 94.2869C241.032 94.4517 240.891 94.5906 240.722 94.6917C240.512 94.8288 240.274 94.9217 240.024 94.9646C239.774 95.0075 239.518 94.9994 239.272 94.9407C239.025 94.8821 238.794 94.7742 238.594 94.6241C238.393 94.474 238.227 94.285 238.107 94.0693L238.035 93.929C237.976 93.7972 237.9 93.6734 237.808 93.5608C237.808 93.5608 237.808 93.6397 237.753 93.666C237.363 94.3147 235.81 102.687 235.429 105.694L235.356 106.281C234.82 110.586 233.83 118.555 228.582 119.703C228.401 119.703 228.219 119.773 228.037 119.791C227.302 119.896 226.603 119.922 225.849 119.922ZM202.74 102.59C202.309 102.592 201.878 102.624 201.451 102.687C201 102.728 200.563 102.862 200.17 103.08C199.777 103.298 199.437 103.594 199.172 103.949C198.902 104.465 198.743 105.028 198.702 105.605C198.662 106.182 198.741 106.76 198.936 107.307V107.307C199.451 109.181 200.54 110.861 202.059 112.129C204.665 114.005 207.998 115.022 211.221 116.004C211.993 116.24 212.765 116.477 213.509 116.722C217.822 118.134 222.907 119.501 227.947 119.028C228.096 119.013 228.245 118.99 228.392 118.958C233.068 117.958 234.012 110.323 234.521 106.22L234.593 105.633C234.866 103.441 236.509 93.8852 237.117 93.1838C237.249 93.0114 237.433 92.8827 237.644 92.8156C238.289 92.6754 238.607 93.2803 238.77 93.6134L238.834 93.7274C238.898 93.8431 238.989 93.9434 239.099 94.0208C239.209 94.0982 239.335 94.1507 239.469 94.1745C239.593 94.2145 239.725 94.2282 239.855 94.2146C239.985 94.201 240.111 94.1604 240.223 94.0956C240.28 94.0625 240.329 94.018 240.366 93.9651C240.404 93.9121 240.429 93.852 240.441 93.7887C240.441 93.6309 240.259 93.4556 240.05 93.2715C239.967 93.2 239.888 93.1239 239.814 93.0436C239.566 92.7999 239.39 92.4968 239.304 92.1655C239.218 91.8341 239.225 91.4866 239.324 91.1587C239.447 90.806 239.7 90.5093 240.035 90.3251C240.37 90.1408 240.763 90.0818 241.14 90.1593C242.166 90.4223 242.23 91.2639 242.275 91.8162C242.275 92.237 242.339 92.5 242.529 92.6491C242.575 92.6728 242.627 92.6853 242.679 92.6853C242.731 92.6853 242.783 92.6728 242.829 92.6491C242.995 92.5771 243.136 92.4617 243.237 92.3159C243.52 91.9605 243.706 91.5427 243.779 91.1003C243.852 90.6579 243.809 90.2049 243.655 89.7823C243.37 89.2956 242.912 88.9251 242.366 88.7391C242.121 88.6777 242.03 88.7391 241.993 88.7391C241.952 88.773 241.904 88.7986 241.852 88.8143C241.8 88.83 241.746 88.8356 241.691 88.8307C241.637 88.8258 241.585 88.8105 241.537 88.7857C241.489 88.761 241.447 88.7273 241.412 88.6865C241.344 88.6046 241.311 88.5001 241.321 88.3953C241.331 88.2904 241.384 88.1936 241.467 88.1254L244.073 86.0214C244.409 85.7497 244.563 85.5393 244.527 85.399C244.524 85.3726 244.515 85.3473 244.499 85.3257C244.483 85.3042 244.461 85.2871 244.436 85.2763C244.097 85.1756 243.731 85.2006 243.41 85.3464C242.171 85.813 240.999 86.4317 239.923 87.1874V87.1874C239.879 87.219 239.828 87.2416 239.775 87.2539C239.721 87.2661 239.666 87.2678 239.611 87.2588C239.557 87.2498 239.505 87.2303 239.459 87.2014C239.413 87.1726 239.373 87.135 239.342 87.091C239.31 87.049 239.288 87.0014 239.275 86.9509C239.262 86.9003 239.26 86.8479 239.269 86.7966C239.277 86.7453 239.296 86.6961 239.324 86.6518C239.352 86.6076 239.389 86.5691 239.433 86.5387V86.5387C239.941 86.188 240.441 85.7847 240.922 85.3902C241.249 85.1272 241.576 84.8642 241.912 84.61C242.047 84.5214 242.186 84.4395 242.329 84.3645C242.529 84.2506 243.156 83.9174 243.183 83.7421C243.183 83.7421 243.183 83.7421 243.128 83.6807C243.074 83.6194 242.829 83.5492 241.503 84.2681L241.203 84.4259C240.482 84.7802 239.8 85.2062 239.17 85.6971L238.479 86.2669C238.402 86.3397 238.297 86.3805 238.189 86.3805C238.08 86.3805 237.976 86.3397 237.898 86.2669C237.825 86.1907 237.784 86.0905 237.784 85.9864C237.784 85.8823 237.825 85.7821 237.898 85.7058C238.125 85.5042 238.361 85.3026 238.607 85.1185L240.958 83.1547L241.031 83.0846C238.845 83.8861 236.909 85.2175 235.41 86.9507C234.827 87.5947 234.278 88.2677 233.767 88.967C231.697 91.7636 230.571 94.7794 229.372 97.9617C229.127 98.6367 228.864 99.3117 228.6 99.9955C227.892 101.81 227.129 103.748 226.294 105.659C225.922 106.535 224.741 108.561 224.687 108.648C224.644 108.724 224.576 108.784 224.494 108.819C224.412 108.854 224.32 108.862 224.233 108.841C223.906 108.762 216.342 106.991 214.871 106.527C213.627 106.132 212.347 105.589 210.985 105.01C208.27 103.8 205.428 102.59 202.74 102.59Z" fill="#231F20"/>
<path d="M164.296 100.487L149.032 104.265L143.457 84.3032C143.457 84.3032 142.385 79.5604 141.278 78.7802C139.062 77.2285 133.051 78.2279 131.998 80.8141C131.858 81.1822 131.785 81.5705 131.78 81.9625C131.778 83.0649 132.221 84.1248 133.015 84.9169C134.023 85.8987 136.502 85.7935 136.719 86.8631C136.828 87.4066 136.129 88.3359 136.066 88.9145C136.04 89.658 136.101 90.402 136.247 91.1325C136.638 94.3323 137.083 97.5234 137.609 100.706C138.095 103.857 138.75 106.982 139.571 110.069C140.025 111.682 140.56 114.452 142.049 115.548C142.24 115.713 142.471 115.827 142.721 115.881C147.089 116.512 165.984 111.497 165.984 111.497" fill="white"/>
<path d="M143.62 116.337C143.298 116.341 142.976 116.321 142.658 116.275C142.341 116.216 142.047 116.077 141.804 115.872C140.397 114.838 139.798 112.55 139.362 110.884C139.301 110.633 139.238 110.396 139.171 110.174C138.344 107.074 137.686 103.934 137.201 100.767C136.719 97.8566 136.293 94.7181 135.839 91.1763C135.839 91.001 135.839 90.8257 135.766 90.6503C135.65 90.073 135.614 89.4835 135.657 88.897C135.717 88.5484 135.833 88.2111 136.002 87.8976C136.168 87.6106 136.273 87.2948 136.311 86.9683C136.238 86.5913 135.539 86.3897 134.804 86.1793C134.037 86.03 133.32 85.7019 132.715 85.2237C131.842 84.3593 131.359 83.1962 131.371 81.9888C131.365 81.5488 131.446 81.1116 131.607 80.7001C132.07 79.5605 133.423 78.6049 135.294 78.0701C137.664 77.4038 140.224 77.5616 141.523 78.4734C142.821 79.3851 143.675 83.4178 143.865 84.2419L149.313 103.792L164.187 100.118C164.239 100.105 164.294 100.102 164.347 100.11C164.401 100.117 164.453 100.135 164.499 100.162C164.546 100.189 164.586 100.225 164.618 100.267C164.65 100.309 164.673 100.357 164.686 100.408C164.701 100.458 164.705 100.511 164.698 100.564C164.69 100.616 164.672 100.666 164.644 100.711C164.616 100.757 164.579 100.796 164.534 100.826C164.49 100.857 164.44 100.879 164.386 100.89L149.132 104.616C149.027 104.642 148.916 104.628 148.822 104.575C148.728 104.523 148.66 104.436 148.632 104.335L143.066 84.4523C142.658 82.6989 141.759 79.6481 141.042 79.1923C139.952 78.4296 137.637 78.3156 135.53 78.9117C133.905 79.3676 132.761 80.1478 132.388 81.0508C132.263 81.373 132.202 81.7149 132.207 82.059C132.209 83.0427 132.61 83.9866 133.323 84.689C133.832 85.0632 134.422 85.321 135.049 85.4429C135.957 85.7059 136.965 85.9864 137.137 86.8456C137.154 87.3367 137.028 87.8226 136.774 88.2483C136.649 88.4917 136.552 88.7474 136.483 89.011C136.453 89.5393 136.489 90.0692 136.592 90.589L136.674 91.1325C137.101 94.6392 137.582 97.7952 138.027 100.697C138.51 103.834 139.161 106.944 139.979 110.016C140.043 110.235 140.106 110.481 140.17 110.744C140.578 112.295 141.132 114.417 142.313 115.285C142.448 115.403 142.609 115.49 142.785 115.539C147.025 116.144 165.694 111.156 165.876 111.156C165.981 111.126 166.095 111.137 166.192 111.188C166.289 111.239 166.362 111.325 166.393 111.427C166.421 111.531 166.407 111.641 166.353 111.734C166.298 111.827 166.209 111.896 166.103 111.927C165.367 112.05 149.232 116.337 143.62 116.337Z" fill="#231F20"/>
<path d="M193.37 91.264L199.808 90.6854C199.808 90.6854 197.429 88.3008 197.837 86.302C198.246 84.3032 199.599 84.2156 197.311 80.8141C195.994 78.8679 194.332 77.3688 193.815 75.0456C193.225 72.3542 191.481 71.1269 188.494 71.8721C187.589 72.151 186.659 72.3447 185.715 72.4507C184.807 72.4507 183.981 72.3104 183.118 72.3016C181.905 72.303 180.714 72.6195 179.671 73.218C178.628 73.8164 177.771 74.6748 177.189 75.7031C176.726 76.5798 176.998 77.6756 176.572 78.3331C176.145 78.9906 174.937 79.2711 174.383 79.6919C173.735 80.1275 173.245 80.7482 172.981 81.4668C172.717 82.1855 172.693 82.9659 172.912 83.6983C173.521 86.9069 176.635 88.4937 173.53 90.3785C170.425 92.2634 170.288 94.42 170.288 94.42L193.37 91.264Z" fill="white"/>
<path d="M170.307 94.8495C170.255 94.8509 170.203 94.8423 170.155 94.8242C170.107 94.8062 170.062 94.779 170.025 94.7443C169.978 94.7058 169.941 94.6571 169.918 94.6023C169.894 94.5474 169.884 94.4879 169.889 94.4287C169.889 94.3323 170.08 92.0442 173.33 90.0453C175.019 89.0196 174.592 88.292 173.748 86.7403C173.175 85.8268 172.761 84.8288 172.522 83.7859C172.297 82.9825 172.332 82.1318 172.623 81.3482C172.913 80.5646 173.445 79.8857 174.147 79.4026C174.434 79.2047 174.738 79.0316 175.055 78.8854C175.494 78.7151 175.892 78.4617 176.227 78.1402C176.385 77.8075 176.465 77.4454 176.463 77.0794C176.48 76.5473 176.603 76.0234 176.826 75.5365C177.443 74.4421 178.353 73.5283 179.462 72.8912C180.571 72.2541 181.837 71.9171 183.128 71.9158C183.518 71.9158 183.899 71.9597 184.29 71.9947C184.759 72.0526 185.233 72.076 185.706 72.0649C186.41 72.005 187.104 71.8698 187.777 71.6616L188.403 71.5038C189.024 71.2618 189.695 71.1648 190.362 71.2208C191.029 71.2767 191.673 71.4841 192.241 71.8259C192.81 72.1678 193.286 72.6344 193.632 73.1878C193.978 73.7412 194.184 74.3658 194.232 75.0105C194.662 76.5098 195.435 77.897 196.493 79.0695C196.884 79.5692 197.283 80.0952 197.665 80.6475C199.399 83.2249 199.172 84.0928 198.654 85.285C198.482 85.654 198.348 86.0387 198.255 86.4335C197.955 87.88 199.49 89.8086 200.116 90.4311C200.17 90.4845 200.207 90.5515 200.223 90.6244C200.24 90.6973 200.234 90.7732 200.207 90.8431C200.179 90.9143 200.131 90.9765 200.069 91.0229C200.006 91.0694 199.931 91.0981 199.853 91.1061L193.424 91.6935L170.307 94.8495ZM183.019 72.7311C181.901 72.7521 180.809 73.0574 179.852 73.6161C178.896 74.1748 178.109 74.9673 177.571 75.9134C177.398 76.3109 177.306 76.7363 177.298 77.1671C177.295 77.6588 177.171 78.1427 176.935 78.5785C176.532 79.0377 176.017 79.3931 175.437 79.613C175.164 79.734 174.903 79.8777 174.656 80.0426C174.07 80.436 173.628 80.9976 173.392 81.6475C173.155 82.2974 173.137 83.0027 173.339 83.6632C173.566 84.6242 173.949 85.5444 174.474 86.3896C175.319 87.8975 176.118 89.3265 173.766 90.773C172.428 91.48 171.39 92.6189 170.833 93.9904L193.324 90.8869L198.972 90.3697C198.255 89.493 197.111 87.8011 197.438 86.2669C197.536 85.8172 197.686 85.3792 197.883 84.9607C198.3 84.0051 198.546 83.4265 196.975 81.077C196.621 80.5423 196.221 80.0338 195.84 79.5341C194.702 78.268 193.876 76.7693 193.424 75.1507C193.394 74.6161 193.23 74.0965 192.947 73.6362C192.664 73.1759 192.269 72.7885 191.798 72.5069C191.326 72.2254 190.791 72.0581 190.238 72.0193C189.685 71.9805 189.13 72.0713 188.621 72.284L188.004 72.4418C187.272 72.6663 186.517 72.8104 185.752 72.8714C185.239 72.8878 184.726 72.8644 184.217 72.8013C183.854 72.8013 183.491 72.7311 183.128 72.7311H183.019Z" fill="#231F20"/>
<path d="M123.481 97.1289C123.397 97.1271 123.315 97.1028 123.245 97.0588C123.143 96.9988 123.07 96.9027 123.041 96.7912C123.012 96.6797 123.03 96.5617 123.09 96.4627C125.378 92.842 132.969 81.0245 134.994 80.7703C135.1 80.7552 135.208 80.7632 135.31 80.7935C135.412 80.8238 135.506 80.8758 135.584 80.9456C136.974 82.2343 133.115 90.6942 131.389 94.2798C131.364 94.3321 131.329 94.3792 131.285 94.4184C131.241 94.4575 131.19 94.4879 131.134 94.5079C131.078 94.5278 131.018 94.5369 130.958 94.5346C130.899 94.5323 130.84 94.5187 130.786 94.4945C130.731 94.4704 130.683 94.4361 130.642 94.3937C130.601 94.3513 130.57 94.3017 130.549 94.2475C130.529 94.1934 130.519 94.1359 130.522 94.0782C130.524 94.0206 130.538 93.9639 130.563 93.9116C133.051 88.748 135.385 82.7603 135.003 81.6382C133.669 82.2431 128.375 89.7386 123.871 96.8835C123.834 96.954 123.779 97.0139 123.71 97.0571C123.642 97.1002 123.562 97.125 123.481 97.1289V97.1289Z" fill="#231F20"/>
<path d="M121.692 95.5072L99.355 123.333L102.833 125.963L104.276 131.749L131.807 121.939L137.046 94.3763L121.692 95.5072Z" fill="white"/>
<path d="M104.276 132.187C104.207 132.2 104.137 132.2 104.068 132.187C104.01 132.158 103.96 132.117 103.921 132.067C103.882 132.017 103.854 131.959 103.841 131.898L102.424 126.261L99.0735 123.727C98.98 123.655 98.9199 123.55 98.9063 123.435C98.8927 123.32 98.9267 123.204 99.0009 123.113L121.338 95.2879C121.375 95.2398 121.423 95.2001 121.478 95.1713C121.533 95.1426 121.593 95.1256 121.656 95.1214L137.01 93.9817C137.08 93.9779 137.149 93.9893 137.214 94.0151C137.278 94.0409 137.336 94.0804 137.382 94.1307C137.429 94.1798 137.463 94.2386 137.482 94.3025C137.5 94.3664 137.504 94.4336 137.491 94.4989L132.252 122.061C132.24 122.136 132.207 122.206 132.158 122.264C132.108 122.323 132.044 122.368 131.971 122.395L104.44 132.204C104.385 132.207 104.33 132.201 104.276 132.187ZM99.9906 123.262L103.114 125.656C103.156 125.683 103.192 125.718 103.221 125.758C103.249 125.799 103.268 125.845 103.278 125.892L104.612 131.205L131.417 121.649L136.501 94.8934L121.973 95.9717L99.9906 123.262Z" fill="#D1D3D4"/>
<path d="M124.461 100.197L120.729 95.4896L133.16 90.5802L135.993 93.5872L124.461 100.197Z" fill="#D1D3D4"/>
<path d="M124.461 100.636C124.393 100.636 124.326 100.621 124.264 100.592C124.203 100.563 124.149 100.521 124.107 100.469L120.366 95.7525C120.323 95.7005 120.292 95.6391 120.278 95.5736C120.264 95.508 120.266 95.4401 120.285 95.3755C120.303 95.3099 120.337 95.2495 120.385 95.1992C120.432 95.1489 120.491 95.1102 120.557 95.0862L132.997 90.1681C133.083 90.1343 133.179 90.1271 133.27 90.1475C133.361 90.1679 133.443 90.2149 133.505 90.2821L136.329 93.2891C136.374 93.3374 136.408 93.3944 136.428 93.4564C136.449 93.5184 136.455 93.5839 136.447 93.6485C136.436 93.7129 136.41 93.7743 136.373 93.8287C136.335 93.8831 136.286 93.9292 136.229 93.9641L124.697 100.574C124.626 100.616 124.545 100.637 124.461 100.636V100.636ZM121.447 95.6736L124.579 99.6186L135.285 93.4819L133.078 91.0974L121.447 95.6736Z" fill="#D1D3D4"/>
<path d="M130.736 99.3031H130.672C130.554 99.2837 130.448 99.2208 130.377 99.1276C130.306 99.0344 130.275 98.9182 130.291 98.8034C130.291 98.7596 130.972 94.3763 131.898 90.0367C133.832 80.9457 134.967 80.8931 135.53 80.8668C135.666 80.8594 135.801 80.8816 135.927 80.9316C136.053 80.9817 136.165 81.0584 136.256 81.1561C137.945 82.7867 137.382 93.6311 137.255 95.7877C137.244 95.9024 137.188 96.0086 137.098 96.0851C137.009 96.1615 136.893 96.2025 136.774 96.1997C136.714 96.1964 136.656 96.1817 136.602 96.1565C136.548 96.1313 136.5 96.0961 136.461 96.053C136.421 96.0098 136.39 95.9595 136.371 95.9049C136.352 95.8504 136.343 95.7927 136.347 95.7351C136.783 88.4675 136.429 82.0503 135.566 81.7084C134.458 82.0415 132.434 90.8959 131.208 98.9086C131.194 99.0194 131.138 99.1213 131.051 99.1943C130.964 99.2673 130.851 99.3061 130.736 99.3031V99.3031Z" fill="#231F20"/>
<path d="M127.285 99.2942L119.821 129.995L127.122 134.729L139.888 125.296L141.414 95.9453L127.285 99.2942Z" fill="white"/>
<path d="M127.122 135.168C127.032 135.167 126.944 135.143 126.868 135.097L119.604 130.355C119.525 130.307 119.463 130.236 119.429 130.153C119.395 130.069 119.389 129.977 119.413 129.89L126.877 99.2066C126.895 99.1262 126.936 99.0524 126.995 98.9935C127.055 98.9345 127.13 98.893 127.213 98.8734L141.341 95.5246C141.41 95.5079 141.482 95.5072 141.552 95.5224C141.621 95.5376 141.686 95.5684 141.741 95.6122C141.796 95.6553 141.839 95.7104 141.867 95.7729C141.896 95.8354 141.908 95.9035 141.904 95.9717L140.342 125.314C140.341 125.377 140.325 125.439 140.295 125.495C140.265 125.552 140.222 125.6 140.17 125.638L127.394 135.08C127.317 135.139 127.22 135.17 127.122 135.168V135.168ZM120.366 129.802L127.14 134.186L139.434 125.068L140.914 96.5064L127.63 99.6537L120.366 129.802Z" fill="#D1D3D4"/>
<path d="M126.513 98.9876L131.535 101.398L141.414 95.9455L138.299 93.0437L126.513 98.9876Z" fill="#D1D3D4"/>
<path d="M131.535 101.837C131.465 101.839 131.396 101.824 131.335 101.793L126.305 99.3557C126.231 99.3168 126.17 99.2598 126.127 99.1905C126.084 99.1211 126.06 99.042 126.059 98.9612C126.059 98.8801 126.082 98.8006 126.125 98.7311C126.169 98.6616 126.231 98.6048 126.305 98.5667L138.109 92.6316C138.193 92.5884 138.289 92.5719 138.384 92.5845C138.478 92.5971 138.566 92.6381 138.635 92.7017L141.75 95.6035C141.801 95.6501 141.84 95.7078 141.864 95.7718C141.887 95.8358 141.895 95.9043 141.886 95.9717C141.875 96.0385 141.849 96.1021 141.809 96.1581C141.77 96.2141 141.719 96.2612 141.659 96.2961L131.78 101.758C131.708 101.806 131.623 101.833 131.535 101.837V101.837ZM127.512 98.9787L131.526 100.907L140.66 95.849L138.218 93.5784L127.512 98.9787Z" fill="#D1D3D4"/>
<path d="M106.011 128.742C105.921 128.74 105.833 128.716 105.756 128.672C105.656 128.606 105.587 128.505 105.563 128.39C105.539 128.275 105.563 128.156 105.629 128.058L123.517 101.758C123.584 101.662 123.687 101.595 123.804 101.572C123.921 101.549 124.043 101.572 124.144 101.635C124.194 101.666 124.237 101.707 124.271 101.754C124.304 101.802 124.328 101.855 124.34 101.912C124.352 101.968 124.352 102.026 124.34 102.083C124.328 102.139 124.304 102.193 124.271 102.24L106.392 128.54C106.35 128.601 106.294 128.652 106.227 128.687C106.161 128.722 106.086 128.741 106.011 128.742V128.742Z" fill="#D1D3D4"/>
<path d="M128.339 133.037H128.275C128.156 133.022 128.048 132.962 127.975 132.87C127.901 132.778 127.869 132.661 127.885 132.546L131.834 104.318C131.842 104.26 131.861 104.204 131.891 104.154C131.921 104.104 131.961 104.06 132.009 104.024C132.057 103.989 132.111 103.963 132.169 103.948C132.227 103.933 132.288 103.929 132.347 103.936C132.407 103.944 132.464 103.962 132.517 103.991C132.569 104.02 132.614 104.059 132.651 104.105C132.688 104.151 132.715 104.203 132.73 104.259C132.746 104.316 132.75 104.374 132.742 104.432L128.783 132.669C128.766 132.771 128.712 132.864 128.631 132.932C128.549 132.999 128.446 133.037 128.339 133.037V133.037Z" fill="#D1D3D4"/>
<path d="M134.704 102.959C134.583 102.959 134.468 102.913 134.383 102.83C134.297 102.748 134.25 102.637 134.25 102.521C134.313 92.9736 134.758 81.5593 136.547 81.4015C137.991 81.4015 139.334 87.959 140.533 100.89C140.538 100.948 140.531 101.005 140.513 101.061C140.494 101.116 140.465 101.167 140.426 101.211C140.387 101.255 140.34 101.291 140.287 101.317C140.233 101.343 140.175 101.359 140.115 101.363C140.056 101.369 139.996 101.364 139.939 101.347C139.882 101.33 139.829 101.303 139.784 101.266C139.738 101.229 139.7 101.184 139.673 101.133C139.646 101.082 139.629 101.026 139.625 100.969C138.853 92.6141 137.527 83.6283 136.583 82.3659C135.739 83.7685 135.176 93.5083 135.121 102.529C135.119 102.638 135.076 102.743 134.998 102.822C134.921 102.901 134.816 102.95 134.704 102.959V102.959Z" fill="#231F20"/>
<path d="M167.637 162.09L161.372 179.904L138.762 169.2C138.762 169.2 130.427 179.825 131.934 180.123C133.442 180.421 138.708 179.036 138.708 179.036C138.708 179.036 163.932 196.386 166.965 193.817C169.998 191.248 180.295 165.43 180.295 165.43" fill="white"/>
<path d="M166.048 194.474C164.314 194.474 160.527 193.168 151.52 187.733C145.482 184.103 139.716 180.176 138.663 179.475C137.6 179.746 133.323 180.807 131.88 180.518C131.775 180.497 131.677 180.451 131.596 180.383C131.515 180.316 131.453 180.229 131.417 180.132C130.908 178.808 136.175 171.883 138.463 168.963C138.521 168.888 138.604 168.834 138.699 168.812C138.793 168.79 138.893 168.8 138.98 168.841L161.172 179.361L167.283 161.976C167.318 161.875 167.393 161.792 167.492 161.744C167.591 161.697 167.705 161.689 167.81 161.722C167.911 161.76 167.994 161.833 168.041 161.928C168.088 162.022 168.096 162.13 168.064 162.231L161.771 180.009C161.728 180.115 161.643 180.201 161.535 180.246C161.481 180.27 161.422 180.282 161.363 180.282C161.303 180.282 161.244 180.27 161.19 180.246L138.88 169.726C135.575 173.969 132.297 178.694 132.161 179.773C133.478 179.913 137.219 179.036 138.599 178.668C138.659 178.654 138.722 178.653 138.783 178.663C138.844 178.674 138.902 178.696 138.953 178.729C148.596 185.366 164.659 195.255 166.693 193.528C169.035 191.546 176.363 174.197 179.913 165.308C179.932 165.258 179.961 165.213 179.999 165.175C180.036 165.136 180.081 165.106 180.131 165.085C180.181 165.063 180.235 165.052 180.29 165.051C180.344 165.05 180.398 165.06 180.449 165.08C180.551 165.119 180.632 165.195 180.677 165.292C180.721 165.388 180.724 165.498 180.685 165.597C180.267 166.649 170.325 191.529 167.247 194.133C166.906 194.388 166.478 194.51 166.048 194.474V194.474Z" fill="#231F20"/>
<path d="M207.417 160.109L229.272 200.436C229.272 200.436 241.24 196.289 240.35 197.499C239.46 198.709 222.717 208.457 222.717 208.457L192.198 162.59" fill="white"/>
<path d="M222.717 208.939C222.647 208.938 222.578 208.921 222.516 208.889C222.455 208.857 222.402 208.811 222.363 208.755L191.854 162.888C191.822 162.844 191.801 162.795 191.79 162.743C191.78 162.691 191.78 162.637 191.792 162.585C191.804 162.533 191.827 162.484 191.86 162.441C191.892 162.398 191.933 162.362 191.981 162.336C192.026 162.306 192.077 162.286 192.13 162.276C192.183 162.266 192.238 162.266 192.292 162.277C192.345 162.287 192.395 162.308 192.44 162.338C192.485 162.367 192.523 162.405 192.553 162.45L222.844 207.993C228.546 204.67 237.081 199.559 239.424 197.841C236.043 198.693 232.709 199.711 229.436 200.892C229.344 200.926 229.242 200.926 229.15 200.892C229.057 200.858 228.981 200.792 228.937 200.708L207.072 160.328C207.037 160.236 207.038 160.135 207.075 160.044C207.112 159.952 207.182 159.877 207.272 159.832C207.362 159.787 207.466 159.775 207.565 159.798C207.663 159.822 207.749 159.879 207.807 159.96L229.499 200.024C240.096 196.368 240.532 196.912 240.741 197.183C240.814 197.273 240.854 197.384 240.854 197.499C240.854 197.613 240.814 197.725 240.741 197.815C239.833 199.059 224.705 207.879 222.98 208.878C222.904 208.931 222.809 208.954 222.717 208.939V208.939Z" fill="#231F20"/>
<path d="M174.847 98.6281C169.008 104.212 170.534 114.548 170.179 123.315L198.999 127.558C198.999 127.558 200.57 102.801 196.475 99.0138C192.38 95.2266 180.694 93.0437 174.847 98.6281Z" fill="#231F20"/>
<path d="M199 127.944H198.936L170.125 123.701C170.028 123.686 169.94 123.638 169.876 123.566C169.813 123.493 169.779 123.401 169.78 123.306C169.853 121.553 169.843 119.668 169.843 117.853C169.843 110.516 169.789 102.95 174.565 98.3476C180.376 92.7982 192.326 94.6392 196.748 98.7333C200.934 102.608 199.472 126.568 199.399 127.584C199.395 127.638 199.38 127.69 199.353 127.737C199.326 127.784 199.289 127.825 199.245 127.856C199.178 127.915 199.09 127.946 199 127.944V127.944ZM170.597 123.026L198.618 127.146C198.8 123.876 199.826 102.687 196.203 99.3294C192.58 95.9718 180.994 93.333 175.128 98.9349C170.588 103.318 170.588 110.709 170.643 117.889C170.652 119.519 170.652 121.272 170.597 123.026Z" fill="#231F20"/>
<path d="M196.021 113.084L208.143 116.205L211.33 103.415L194.514 97.6287L196.021 113.084Z" fill="#231F20"/>
<path d="M208.143 116.591H208.034L195.921 113.479C195.843 113.458 195.772 113.416 195.719 113.357C195.665 113.297 195.632 113.224 195.622 113.146L194.123 97.6901C194.114 97.6258 194.123 97.5603 194.148 97.5002C194.174 97.4402 194.215 97.3877 194.269 97.3482C194.321 97.3068 194.384 97.2795 194.451 97.2687C194.518 97.2579 194.586 97.2642 194.65 97.2868L211.466 103.064C211.559 103.098 211.635 103.162 211.682 103.246C211.728 103.33 211.742 103.427 211.721 103.52L208.524 116.311C208.514 116.362 208.493 116.41 208.462 116.453C208.43 116.495 208.39 116.53 208.343 116.556C208.28 116.583 208.212 116.595 208.143 116.591V116.591ZM196.393 112.786L207.843 115.732L210.858 103.66L194.977 98.1985L196.393 112.786Z" fill="#231F20"/>
<path d="M181.829 94.7093L158.902 100.592L162.952 113.979L184.353 110.244L181.902 96.1032" fill="#231F20"/>
<path d="M162.952 114.364C162.866 114.366 162.782 114.34 162.713 114.291C162.644 114.241 162.594 114.172 162.57 114.092L158.502 100.697C158.467 100.601 158.467 100.495 158.502 100.399C158.557 100.31 158.645 100.244 158.748 100.215L181.675 94.3411C181.777 94.3144 181.886 94.328 181.978 94.3789C182.07 94.4299 182.137 94.514 182.165 94.6129C182.193 94.7117 182.179 94.8171 182.126 94.9058C182.073 94.9946 181.986 95.0595 181.884 95.0863L159.41 100.864L163.242 113.54L183.927 109.937L181.538 96.1733C181.53 96.1233 181.531 96.072 181.542 96.0224C181.554 95.9728 181.576 95.9259 181.606 95.8844C181.636 95.8429 181.675 95.8076 181.719 95.7804C181.764 95.7533 181.813 95.7349 181.865 95.7262C181.917 95.7176 181.97 95.7189 182.022 95.7301C182.073 95.7413 182.122 95.7621 182.165 95.7914C182.208 95.8207 182.244 95.8579 182.272 95.9009C182.3 95.9439 182.32 95.9918 182.328 96.0418L184.78 110.183C184.796 110.283 184.771 110.386 184.71 110.47C184.649 110.553 184.557 110.61 184.453 110.63L163.042 114.364H162.952Z" fill="#231F20"/>
<path d="M190.047 91.6935L190.61 97.1114C190.61 97.1114 190.337 100.197 186.823 99.5836C185.784 99.3901 184.803 98.9748 183.951 98.3681C183.1 97.7613 182.4 96.9785 181.902 96.0769C181.804 95.6185 181.78 95.1485 181.829 94.683L181.647 91.5094C181.557 89.9051 181.33 88.257 181.375 86.6527C181.42 85.0484 181.375 83.3739 181.439 81.717C181.437 81.6205 181.465 81.5257 181.52 81.4453C181.582 81.3896 181.663 81.3583 181.747 81.3576C182.217 81.2613 182.703 81.2613 183.173 81.3576C183.201 80.2312 183.064 79.1066 182.764 78.0175C183.756 78.731 184.523 79.696 184.98 80.8053C186.145 80.7509 187.313 80.8067 188.467 80.9719C188.618 80.196 188.507 79.3937 188.149 78.6838C188.639 79.271 189.088 79.889 189.493 80.5335C190.031 80.7037 190.598 80.7751 191.163 80.7439C191.436 80.516 191.345 78.9906 191.381 78.5786C192.179 79.5497 192.721 80.6927 192.961 81.9099C193.175 84.1948 193.257 86.4893 193.206 88.783C193.258 89.1895 193.21 89.6019 193.067 89.9874C192.924 90.3729 192.69 90.7209 192.383 91.0035C192.076 91.2862 191.705 91.4958 191.299 91.6156C190.894 91.7353 190.465 91.7621 190.047 91.6935V91.6935Z" fill="white"/>
<path d="M187.704 100.066C187.399 100.063 187.095 100.033 186.796 99.9781C185.697 99.7713 184.659 99.3325 183.756 98.6928C182.854 98.0532 182.109 97.2288 181.575 96.2785C181.447 95.9 181.404 95.4996 181.448 95.1038C181.456 94.9812 181.456 94.8582 181.448 94.7356L181.203 91.5533C181.203 91.0273 181.121 90.4925 181.075 89.9577C180.963 88.8654 180.915 87.7678 180.93 86.6702C180.93 85.8871 180.93 85.1068 180.93 84.3295C180.93 83.4529 180.93 82.5762 180.93 81.6995C180.919 81.5041 180.988 81.3124 181.121 81.1647C181.243 81.0478 181.404 80.9764 181.575 80.9631C181.936 80.9102 182.303 80.9102 182.664 80.9631C182.644 80.0277 182.51 79.0979 182.265 78.1928C182.243 78.1137 182.246 78.0298 182.276 77.9528C182.305 77.8758 182.358 77.8096 182.428 77.7633C182.499 77.7165 182.583 77.6915 182.669 77.6915C182.755 77.6915 182.839 77.7165 182.91 77.7633C183.887 78.4604 184.66 79.3909 185.152 80.4634C186.108 80.4341 187.064 80.4751 188.013 80.5861C188.052 80.015 187.936 79.4439 187.677 78.9292C187.639 78.841 187.635 78.7428 187.665 78.652C187.695 78.5612 187.758 78.4836 187.842 78.4332C187.926 78.3827 188.025 78.3625 188.123 78.3763C188.221 78.3901 188.31 78.4369 188.376 78.5084C188.849 79.0637 189.283 79.6495 189.674 80.2618C190.048 80.3402 190.427 80.3901 190.809 80.4108C190.809 80.1478 190.855 79.4377 190.855 79.1133C190.855 78.789 190.855 78.6925 190.855 78.5873C190.859 78.5074 190.888 78.4306 190.938 78.3671C190.989 78.3036 191.058 78.2563 191.136 78.2316C191.215 78.2069 191.3 78.2058 191.379 78.2287C191.459 78.2515 191.529 78.2971 191.581 78.3594C192.433 79.3751 193.007 80.5808 193.252 81.8661C193.487 83.9913 193.571 86.1294 193.506 88.2658V88.8356C193.521 89.316 193.429 89.7939 193.237 90.237C193.044 90.6802 192.755 91.0782 192.389 91.4042C191.834 91.8669 191.125 92.1193 190.392 92.1143L190.9 97.0675C190.862 97.526 190.729 97.9724 190.509 98.3804C190.289 98.7885 189.987 99.1499 189.62 99.4433C189.066 99.8432 188.395 100.061 187.704 100.066V100.066ZM181.856 81.7696C181.856 82.6463 181.856 83.523 181.856 84.3295C181.856 85.1361 181.856 85.9075 181.856 86.6965C181.846 87.762 181.895 88.8272 182.002 89.8876C182.047 90.4311 182.102 90.9747 182.129 91.5094L182.301 94.6918C182.31 94.8377 182.31 94.9841 182.301 95.1301C182.272 95.3996 182.288 95.6718 182.347 95.9366C182.822 96.7719 183.481 97.4961 184.278 98.0581C185.075 98.6202 185.991 99.0062 186.959 99.1891C187.353 99.2919 187.765 99.3122 188.167 99.2487C188.57 99.1852 188.954 99.0393 189.293 98.8209C189.835 98.3773 190.179 97.7495 190.255 97.0675L189.692 91.7198C189.688 91.6597 189.697 91.5993 189.72 91.543C189.742 91.4867 189.777 91.4359 189.822 91.3941C189.867 91.3523 189.921 91.3205 189.981 91.3011C190.04 91.2816 190.102 91.2749 190.165 91.2815C190.485 91.3331 190.814 91.3167 191.128 91.2334C191.441 91.1501 191.732 91.002 191.981 90.7993C192.256 90.548 192.472 90.2427 192.614 89.9039C192.757 89.5652 192.822 89.2009 192.807 88.8356V88.2745C192.854 86.1971 192.776 84.1187 192.571 82.0502C192.404 81.3028 192.142 80.5783 191.79 79.8936C191.79 80.5598 191.672 80.9105 191.463 81.0946C191.091 81.419 189.42 80.9982 189.411 80.9894C189.309 80.9456 189.221 80.876 189.157 80.7878V80.7878L188.966 80.4985C188.96 80.6988 188.935 80.8983 188.893 81.0946C188.876 81.1964 188.817 81.2875 188.73 81.3481C188.644 81.4087 188.536 81.4342 188.43 81.419C187.303 81.2628 186.163 81.207 185.025 81.2524C184.939 81.2599 184.852 81.24 184.778 81.1957C184.705 81.1514 184.648 81.0852 184.617 81.0069C184.339 80.3451 183.946 79.7343 183.454 79.201C183.574 79.9344 183.626 80.6767 183.609 81.419C183.608 81.4785 183.593 81.5371 183.565 81.5903C183.538 81.6436 183.498 81.6901 183.449 81.7263C183.4 81.7626 183.343 81.7877 183.283 81.7998C183.223 81.8118 183.16 81.8105 183.1 81.7959C182.692 81.706 182.269 81.6971 181.856 81.7696V81.7696Z" fill="#231F20"/>
<path d="M190.283 94.3586C188.898 94.5062 187.507 94.136 186.396 93.3241C185.944 92.9874 185.572 92.5599 185.307 92.071C185.042 91.5821 184.89 91.0435 184.862 90.4925C186.464 91.2992 188.248 91.7117 190.056 91.6935L190.283 94.3586Z" fill="#231F20"/>
<path d="M189.692 94.7794C188.403 94.8057 187.144 94.3964 186.133 93.6222C185.632 93.2482 185.221 92.7725 184.931 92.2287C184.641 91.6849 184.478 91.0862 184.453 90.475C184.457 90.4093 184.478 90.3457 184.514 90.2903C184.551 90.235 184.602 90.1898 184.662 90.1593C184.72 90.127 184.786 90.11 184.853 90.11C184.92 90.11 184.985 90.127 185.043 90.1593C186.581 90.9275 188.288 91.3246 190.019 91.3166C190.071 91.3118 190.124 91.3171 190.174 91.3322C190.224 91.3474 190.27 91.372 190.31 91.4047C190.349 91.4374 190.382 91.4775 190.405 91.5226C190.429 91.5677 190.443 91.6169 190.446 91.6672L190.673 94.2972C190.681 94.3965 190.65 94.495 190.586 94.573C190.522 94.6511 190.43 94.7029 190.328 94.718C190.117 94.7494 189.905 94.7699 189.692 94.7794ZM185.352 91.15C185.578 91.8902 186.031 92.5472 186.651 93.0348C187.562 93.7092 188.691 94.0507 189.838 93.9992L189.674 92.088C188.182 92.0674 186.71 91.748 185.352 91.15Z" fill="#231F20"/>
<path d="M188.212 87.7047C188.016 87.721 187.819 87.721 187.622 87.7047C187.517 87.6896 187.423 87.6349 187.36 87.5527C187.297 87.4705 187.271 87.3675 187.286 87.2664C187.304 87.1646 187.363 87.0736 187.449 87.0129C187.536 86.9523 187.644 86.9268 187.749 86.942C188.158 87.0034 188.83 86.942 188.984 86.793C188.545 85.9027 187.983 85.0739 187.313 84.3296C187.28 84.2904 187.255 84.2453 187.24 84.1968C187.224 84.1483 187.219 84.0974 187.224 84.0469C187.229 83.9964 187.244 83.9474 187.269 83.9026C187.294 83.8578 187.327 83.8182 187.368 83.786C187.452 83.7225 187.558 83.6925 187.665 83.7023C187.771 83.712 187.87 83.7609 187.94 83.8386C190.201 86.5212 189.756 87.0735 189.62 87.2576C189.433 87.4264 189.21 87.5538 188.967 87.631C188.724 87.7082 188.467 87.7334 188.212 87.7047V87.7047Z" fill="#231F20"/>
<path d="M183.019 83.7246C182.741 83.0643 182.323 82.4671 181.793 81.9713C181.523 81.7284 181.183 81.5707 180.818 81.519C180.453 81.4673 180.08 81.5242 179.75 81.682C179.437 81.931 179.201 82.2577 179.066 82.627C178.932 82.9963 178.904 83.394 178.987 83.7772C179.094 84.6631 179.345 85.5271 179.732 86.3371C179.913 86.8357 180.226 87.2799 180.64 87.6258C180.849 87.794 181.11 87.8912 181.382 87.9022C181.655 87.9133 181.923 87.8378 182.147 87.6872" fill="white"/>
<path d="M181.457 88.3184C181.054 88.3116 180.663 88.1828 180.34 87.9502C179.874 87.5621 179.52 87.0636 179.314 86.5037C178.913 85.6719 178.649 84.7844 178.533 83.8737C178.435 83.4146 178.474 82.9383 178.644 82.4994C178.814 82.0605 179.11 81.6769 179.496 81.3927C179.9 81.1921 180.359 81.1156 180.81 81.1736C181.261 81.2316 181.683 81.4212 182.02 81.7171C182.595 82.2425 183.05 82.8786 183.355 83.5844C183.385 83.6321 183.404 83.6852 183.412 83.7405C183.42 83.7958 183.415 83.8521 183.399 83.9057C183.383 83.9593 183.356 84.0091 183.319 84.052C183.282 84.0949 183.236 84.13 183.185 84.1549C183.133 84.1799 183.077 84.1942 183.019 84.197C182.961 84.1998 182.903 84.191 182.849 84.1712C182.795 84.1513 182.746 84.1209 182.705 84.0817C182.664 84.0426 182.631 83.9957 182.61 83.9438C182.353 83.3393 181.974 82.7908 181.493 82.3308C181.289 82.143 181.031 82.0185 180.753 81.9732C180.474 81.9279 180.188 81.9639 179.931 82.0765C179.287 82.4623 179.332 83.488 179.359 83.8299C179.463 84.6739 179.705 85.4967 180.077 86.267C180.229 86.6994 180.495 87.0861 180.848 87.3892C180.982 87.5021 181.149 87.5707 181.325 87.5849C181.502 87.5991 181.679 87.5582 181.829 87.4681C181.915 87.4013 182.025 87.3695 182.135 87.3793C182.245 87.3891 182.347 87.4398 182.419 87.5207C182.488 87.6025 182.521 87.7071 182.51 87.8119C182.5 87.9167 182.448 88.0136 182.365 88.0817C182.1 88.2595 181.779 88.3431 181.457 88.3184V88.3184Z" fill="#231F20"/>
<path d="M221.618 207.098C221.681 207.177 230.407 201.637 230.407 201.637C230.407 201.637 230.162 199.103 230.861 198.577C231.561 198.051 241.612 195.167 242.448 196.535C243.283 197.902 223.043 210.754 223.043 210.754L221.618 207.098Z" fill="#231F20"/>
<path d="M223.043 211.14H222.925C222.867 211.122 222.814 211.091 222.77 211.05C222.726 211.009 222.692 210.959 222.671 210.903L221.246 207.256C221.21 207.17 221.209 207.073 221.242 206.986C221.276 206.898 221.342 206.826 221.427 206.783H221.5C222.017 206.529 226.757 203.548 229.99 201.523C229.926 200.699 229.89 198.893 230.616 198.349C231.343 197.806 239.379 195.456 241.912 195.921C242.092 195.935 242.266 195.987 242.423 196.073C242.58 196.16 242.716 196.278 242.82 196.421C243.101 196.885 243.528 197.578 233.313 204.556C228.419 207.905 223.325 211.122 223.325 211.157C223.231 211.178 223.134 211.172 223.043 211.14ZM222.135 207.247L223.27 210.167C232.105 204.556 241.467 198.042 242.039 196.666C241.956 196.627 241.867 196.6 241.776 196.587C239.533 196.14 231.706 198.428 231.098 198.858C230.78 199.094 230.689 200.453 230.798 201.575C230.805 201.645 230.793 201.715 230.763 201.778C230.733 201.841 230.685 201.896 230.625 201.935C225.214 205.433 223.043 206.774 222.108 207.247H222.135Z" fill="#231F20"/>
<path d="M141.096 169.884L135.176 178.256L136.928 180.342C136.928 180.342 129.337 184.726 128.012 183.674C126.686 182.622 137.618 167.99 137.618 167.99L141.096 169.884Z" fill="#231F20"/>
<path d="M128.611 184.209C128.306 184.231 128.004 184.147 127.757 183.972C126.423 182.92 132.188 174.574 137.264 167.771C137.32 167.693 137.404 167.637 137.5 167.616C137.596 167.595 137.697 167.61 137.782 167.657L141.296 169.542C141.39 169.596 141.459 169.685 141.486 169.787C141.501 169.839 141.503 169.894 141.494 169.947C141.484 169.999 141.463 170.05 141.432 170.094L135.675 178.256L137.237 180.115C137.275 180.158 137.302 180.208 137.316 180.263C137.33 180.318 137.331 180.375 137.319 180.43C137.309 180.484 137.288 180.535 137.257 180.58C137.226 180.626 137.185 180.664 137.137 180.693C135.557 181.587 130.826 184.209 128.611 184.209ZM137.691 168.499C132.779 175.118 127.966 182.438 128.293 183.402C128.911 183.875 132.833 182.166 136.32 180.211L134.858 178.458C134.808 178.392 134.781 178.312 134.781 178.23C134.781 178.148 134.808 178.068 134.858 178.002L140.524 169.98L137.691 168.499Z" fill="#231F20"/>
<path d="M188.203 89.7123H187.958C186.878 89.6071 185.924 88.8356 185.143 87.319C185.118 87.2736 185.103 87.2239 185.098 87.1727C185.093 87.1215 185.099 87.0699 185.115 87.0209C185.131 86.9719 185.157 86.9265 185.192 86.8873C185.226 86.8482 185.268 86.8161 185.316 86.793C185.411 86.7465 185.522 86.7379 185.623 86.769C185.725 86.8001 185.81 86.8685 185.861 86.9595C186.505 88.1956 187.241 88.8619 188.04 88.9408C188.478 88.9178 188.906 88.8041 189.294 88.6075C189.683 88.4108 190.023 88.1358 190.292 87.8011C190.324 87.7613 190.365 87.7281 190.411 87.7034C190.457 87.6788 190.508 87.6631 190.56 87.6574C190.612 87.6517 190.665 87.6561 190.716 87.6702C190.766 87.6843 190.814 87.708 190.855 87.7398C190.897 87.7707 190.932 87.8093 190.958 87.8535C190.985 87.8976 191.002 87.9464 191.008 87.9969C191.015 88.0474 191.011 88.0988 190.997 88.1479C190.984 88.1971 190.96 88.2431 190.927 88.2833C190.595 88.6847 190.182 89.0179 189.715 89.2633C189.247 89.5087 188.733 89.6613 188.203 89.7123V89.7123Z" fill="#231F20"/>
<path d="M184.735 83.1987C184.651 83.1969 184.569 83.1726 184.499 83.1286C184.413 83.0673 184.356 82.9762 184.339 82.8747C184.322 82.7731 184.347 82.6692 184.408 82.5851C184.49 82.4799 185.189 81.5769 185.997 81.6646C186.224 81.6981 186.437 81.7921 186.612 81.9362C186.787 82.0802 186.916 82.2685 186.987 82.4799C187.014 82.5708 187.007 82.6683 186.966 82.7544C186.925 82.8405 186.853 82.9096 186.764 82.9489C186.675 82.9883 186.574 82.9953 186.48 82.9687C186.385 82.9422 186.304 82.8838 186.251 82.8042C186.197 82.6727 186.069 82.4536 185.915 82.436C185.761 82.4185 185.27 82.7692 185.062 83.0409C185.024 83.0905 184.975 83.1306 184.918 83.158C184.861 83.1855 184.798 83.1994 184.735 83.1987V83.1987Z" fill="#231F20"/>
<path d="M191.018 83.2777C190.943 83.2772 190.869 83.2564 190.804 83.2177C190.74 83.179 190.689 83.1239 190.655 83.0585C190.582 82.9095 190.283 82.4536 189.947 82.3835C189.611 82.3133 189.556 82.8043 189.556 82.813C189.525 82.9106 189.455 82.9922 189.361 83.0399C189.267 83.0876 189.158 83.0974 189.057 83.0673C189.006 83.0532 188.958 83.0295 188.917 82.9975C188.876 82.9656 188.842 82.926 188.816 82.8812C188.791 82.8363 188.775 82.787 188.77 82.7362C188.764 82.6854 188.769 82.634 188.784 82.5851C188.838 82.2888 189.007 82.0237 189.257 81.8443C189.507 81.6648 189.819 81.5849 190.128 81.6208C190.404 81.7128 190.657 81.8583 190.873 82.0482C191.088 82.2382 191.261 82.4686 191.381 82.7254C191.404 82.7714 191.418 82.8213 191.421 82.8723C191.423 82.9233 191.416 82.9743 191.398 83.0225C191.38 83.0706 191.353 83.1148 191.317 83.1526C191.282 83.1904 191.239 83.221 191.191 83.2426C191.137 83.2675 191.078 83.2795 191.018 83.2777V83.2777Z" fill="#231F20"/>
<path d="M169.398 119.896C169.398 119.896 166.929 135.51 157.34 174.337C157.34 174.337 158.512 180.719 178.824 181.079C199.136 181.438 216.587 167.438 216.587 167.438L200.434 122.964L169.398 119.896Z" fill="#192BC2"/>
<path d="M176.862 127.365L176.581 95.7174L180.004 94.6479L180.086 127.918L176.862 127.365Z" fill="#192BC2"/>
<path d="M192.798 95.8227L192.316 126.085L195.313 127.015L196.048 96.8396L192.798 95.8227Z" fill="#192BC2"/>
<path d="M139.216 80.297C138.884 79.9172 138.465 79.6161 137.993 79.417C137.52 79.2179 137.007 79.1261 136.492 79.1486C135.471 79.1984 134.463 79.3995 133.505 79.7447C133.314 79.8061 133.078 79.92 133.087 80.1129C133.096 80.3058 133.278 80.3759 133.441 80.4373C134.531 80.8525 135.694 81.058 136.865 81.0422C136.589 81.3665 136.403 81.7528 136.324 82.165C136.245 82.5773 136.275 83.0022 136.411 83.4004C136.603 84.5157 137.19 85.532 138.072 86.2759C138.517 86.6377 139.063 86.8621 139.641 86.92C140.219 86.9778 140.802 86.8664 141.314 86.6002" fill="white"/>
<path d="M140.025 87.3454C139.228 87.3395 138.457 87.0738 137.836 86.5915C136.883 85.7861 136.243 84.6916 136.02 83.4881C135.839 82.8072 135.874 82.0894 136.12 81.4279C135.156 81.3571 134.208 81.1503 133.305 80.8142C133.144 80.7748 132.999 80.6893 132.889 80.5689C132.778 80.4484 132.708 80.2986 132.688 80.1392C132.688 79.9726 132.688 79.5693 133.405 79.3589C134.396 79.0059 135.437 78.8019 136.492 78.754V78.754C137.067 78.7339 137.638 78.8403 138.164 79.0651C138.689 79.2899 139.155 79.6272 139.525 80.0515C139.566 80.0927 139.597 80.1417 139.616 80.1953C139.636 80.2489 139.644 80.3059 139.639 80.3626C139.634 80.4192 139.617 80.4742 139.588 80.524C139.56 80.5738 139.521 80.6172 139.474 80.6514C139.427 80.6856 139.373 80.7098 139.315 80.7225C139.258 80.7351 139.198 80.7359 139.141 80.7248C139.083 80.7137 139.028 80.6909 138.98 80.658C138.932 80.625 138.892 80.5827 138.862 80.5337C138.571 80.2065 138.206 79.9479 137.795 79.7778C137.384 79.6076 136.939 79.5303 136.492 79.5518V79.5518C135.543 79.6019 134.607 79.788 133.714 80.1041C134.724 80.4817 135.8 80.6663 136.883 80.6476C136.966 80.6495 137.048 80.6744 137.117 80.7195C137.186 80.7645 137.24 80.8278 137.273 80.9019C137.304 80.9769 137.31 81.0592 137.29 81.1376C137.271 81.2159 137.227 81.2866 137.164 81.3402C136.952 81.622 136.81 81.9481 136.752 82.2922C136.694 82.6364 136.72 82.9889 136.828 83.3215C137.01 84.3389 137.545 85.2663 138.345 85.9515C138.718 86.2543 139.176 86.4442 139.66 86.4972C140.145 86.5502 140.635 86.4641 141.069 86.2496C141.161 86.2077 141.265 86.1997 141.363 86.2269C141.461 86.2542 141.545 86.315 141.599 86.3978C141.654 86.4806 141.675 86.5798 141.66 86.6768C141.644 86.7738 141.592 86.8619 141.514 86.9246C141.068 87.1968 140.552 87.3426 140.025 87.3454V87.3454Z" fill="#231F20"/>
<path d="M187.495 139.463H186.914C176.971 139.148 176.417 128.373 176.408 128.268C176.408 128.149 176.453 128.033 176.535 127.944C176.578 127.9 176.631 127.865 176.689 127.843C176.747 127.82 176.809 127.81 176.871 127.812L197.474 128.005C197.585 128.009 197.691 128.05 197.772 128.123C197.854 128.195 197.906 128.293 197.919 128.4C198.127 129.859 198.011 131.345 197.579 132.758C197.146 134.171 196.408 135.48 195.413 136.597C193.57 138.49 190.909 139.463 187.495 139.463ZM177.362 128.689C177.543 130.304 177.997 131.879 178.706 133.353C179.389 134.915 180.535 136.248 182 137.184C183.466 138.12 185.184 138.617 186.941 138.613C190.355 138.709 192.988 137.85 194.75 135.983C195.603 135.003 196.246 133.869 196.64 132.647C197.034 131.424 197.173 130.139 197.047 128.864L177.362 128.689Z" fill="#231F20"/>
<path d="M114.918 168.428C114.795 168.428 114.678 168.381 114.591 168.297C114.549 168.257 114.515 168.209 114.492 168.157C114.47 168.104 114.458 168.047 114.458 167.99C114.458 167.933 114.47 167.876 114.492 167.824C114.515 167.771 114.549 167.723 114.591 167.683L153.054 131.442C153.095 131.396 153.146 131.359 153.202 131.333C153.259 131.307 153.32 131.293 153.383 131.291C153.445 131.289 153.508 131.3 153.566 131.322C153.624 131.345 153.676 131.379 153.72 131.422C153.764 131.465 153.798 131.516 153.821 131.572C153.843 131.629 153.853 131.689 153.851 131.749C153.848 131.81 153.832 131.869 153.804 131.923C153.777 131.977 153.738 132.025 153.69 132.064L115.29 168.306C115.242 168.352 115.184 168.388 115.119 168.409C115.055 168.43 114.986 168.437 114.918 168.428V168.428Z" fill="#D1D3D4"/>
<path d="M152.264 81.6383C152.198 81.639 152.133 81.6251 152.073 81.5978C152.013 81.5704 151.961 81.5303 151.919 81.4805C151.88 81.4371 151.851 81.3866 151.833 81.332C151.814 81.2774 151.807 81.2197 151.812 81.1625C151.817 81.1053 151.834 81.0497 151.862 80.9989C151.89 80.9481 151.928 80.9032 151.974 80.8668L163.696 71.3462C163.741 71.3086 163.793 71.2801 163.85 71.2623C163.907 71.2446 163.966 71.238 164.025 71.2429C164.085 71.2478 164.142 71.2641 164.195 71.2909C164.248 71.3177 164.294 71.3543 164.332 71.3988C164.409 71.4889 164.446 71.6044 164.436 71.7207C164.426 71.837 164.369 71.9449 164.277 72.0212L152.555 81.5331C152.474 81.6007 152.371 81.638 152.264 81.6383V81.6383Z" fill="#D1D3D4"/>
<path d="M118.196 150.308C118.105 150.307 118.016 150.279 117.942 150.229C117.867 150.178 117.81 150.107 117.777 150.025C117.745 149.943 117.739 149.853 117.76 149.767C117.782 149.682 117.829 149.604 117.897 149.545L130.436 138.692C130.526 138.614 130.645 138.574 130.766 138.581C130.887 138.587 131 138.64 131.081 138.727C131.161 138.814 131.203 138.929 131.196 139.045C131.189 139.162 131.135 139.272 131.044 139.349L118.55 150.203C118.451 150.281 118.324 150.319 118.196 150.308Z" fill="#D1D3D4"/>
<path d="M67.0573 212.797C71.1894 212.797 74.5392 212.29 74.5392 211.666C74.5392 211.041 71.1894 210.535 67.0573 210.535C62.9251 210.535 59.5753 211.041 59.5753 211.666C59.5753 212.29 62.9251 212.797 67.0573 212.797Z" fill="#D1D3D4"/>
<path d="M68.4737 178.835C68.5426 177.82 68.3195 176.806 67.829 175.906C67.3426 175.313 66.888 174.695 66.467 174.057C65.895 172.873 66.2945 171.427 66.1583 170.164C66.0416 169.07 65.542 168.046 64.7418 167.262C64.0336 166.579 63.1256 166.105 62.4537 165.386C61.3459 164.203 61.0281 162.546 60.4016 161.073C59.5055 158.992 57.9557 157.235 55.9705 156.05C57.1782 158.391 54.436 161.371 55.68 163.694C56.0704 164.431 56.824 164.966 57.1146 165.755C57.8138 167.639 55.4893 169.682 56.2066 171.549C56.5789 172.479 57.614 173.022 58.0952 173.908C58.7399 175.1 58.2314 176.538 58.2859 177.896C58.4948 179.767 59.437 181.489 60.9191 182.709C61.8271 183.516 62.7351 184.208 63.6976 184.927C64.8145 185.804 65.2866 186.681 66.2764 185.313C67.6406 183.403 68.4037 181.153 68.4737 178.835V178.835Z" fill="#D1D3D4"/>
<path d="M69.7176 179.895C69.2326 178.472 69.2326 176.936 69.7176 175.512C70.4077 173.978 72.1148 172.882 72.3236 171.234C72.4507 170.147 71.8787 169.042 72.1057 167.964C72.3327 166.885 73.2407 166.158 73.9852 165.334C75.7108 163.5 76.7359 161.153 76.8909 158.68C78.0463 159.993 78.9836 161.472 79.6694 163.063C80.0022 163.869 80.1385 164.738 80.0677 165.603C79.9968 166.468 79.7207 167.306 79.2608 168.051C78.9716 168.387 78.7359 168.762 78.5616 169.165C78.2256 170.217 79.1609 171.207 79.6512 172.216C79.9384 172.79 80.058 173.429 79.9972 174.063C79.9364 174.698 79.6975 175.305 79.3062 175.819C78.3164 177.002 76.4187 177.467 75.9375 178.913C75.8158 179.452 75.758 180.002 75.7649 180.553C75.66 181.514 75.2572 182.422 74.6092 183.159C73.9613 183.895 73.0982 184.426 72.1329 184.682C70.9707 184.954 70.9979 184.507 70.7891 183.56C70.5439 182.394 70.0354 181.166 69.7176 179.895Z" fill="#D1D3D4"/>
<path d="M66.0131 169.551C65.1868 166.789 64.8508 163.896 63.9791 161.152C63.236 159 62.3254 156.904 61.2551 154.884L64.8054 156.331C65.9404 156.795 67.1753 157.339 67.711 158.408C68.619 160.284 66.9665 162.678 67.9562 164.545C68.3805 165.146 68.8478 165.717 69.3545 166.254C70.3987 167.666 70.2625 169.621 69.6723 171.269C69.4181 171.979 68.3466 175.652 67.3841 174.627C67.0028 174.215 66.9665 172.698 66.803 172.137C66.576 171.243 66.2673 170.41 66.0131 169.551Z" fill="#D1D3D4"/>
<path d="M67.9562 206.309C67.2479 201.786 65.0324 185.865 65.0051 185.708L65.6135 185.629C65.6135 185.786 67.8563 201.707 68.5645 206.222L67.9562 206.309Z" fill="#D1D3D4"/>
<path d="M68.7824 210.535H68.1741C68.1741 205.17 70.5258 184.673 71.8696 183.262L72.3236 183.665C71.4338 184.594 68.846 203.188 68.7824 210.535Z" fill="#D1D3D4"/>
<path d="M69.9901 209.518H69.3726C69.9083 197.955 67.3659 173.662 67.3387 173.417L67.947 173.355C67.9743 173.574 70.5258 197.911 69.9901 209.518Z" fill="#D1D3D4"/>
<path d="M61.8726 195.386H75.0932L74.1851 208.308C74.1069 209.386 73.6076 210.394 72.7884 211.13C71.9691 211.866 70.891 212.273 69.7722 212.271H67.2208C66.1029 212.273 65.0259 211.865 64.2081 211.129C63.3903 210.394 62.893 209.385 62.8169 208.308L61.8726 195.386Z" fill="white"/>
<path d="M69.7541 212.709H67.2026C65.9687 212.707 64.7813 212.254 63.8798 211.441C62.9783 210.627 62.4298 209.514 62.3448 208.326L61.4368 195.404C61.4328 195.345 61.4412 195.285 61.4615 195.23C61.4817 195.174 61.5135 195.123 61.5548 195.079C61.5973 195.034 61.6492 194.998 61.7071 194.974C61.7651 194.95 61.8277 194.938 61.8908 194.939H75.1113C75.1732 194.937 75.2346 194.949 75.2911 194.974C75.3476 194.998 75.3979 195.034 75.4382 195.079C75.4814 195.122 75.5144 195.173 75.5348 195.229C75.5552 195.285 75.5625 195.344 75.5562 195.404L74.6482 208.326C74.5586 209.519 74.0036 210.635 73.0953 211.448C72.1871 212.262 70.993 212.712 69.7541 212.709V212.709ZM62.3538 195.789L63.2618 208.238C63.3351 209.204 63.7838 210.108 64.518 210.768C65.2522 211.428 66.2176 211.795 67.2207 211.797H69.7722C70.7754 211.795 71.7408 211.428 72.475 210.768C73.2092 210.108 73.6579 209.204 73.7311 208.238L74.6391 195.789H62.3538Z" fill="#D1D3D4"/>
</svg>
